<svg width="17" height="14" viewBox="0 0 17 14" fill="none" xmlns="http://www.w3.org/2000/svg">
<path d="M11.9561 7.32812C16.6286 6.55113 16.7773 1.372 16.7783 1.31863C16.7803 1.20138 16.7281 1.0885 16.6336 1.00538C16.5392 0.92225 16.4106 0.875 16.276 0.875H12.7598V0.4375C12.7598 0.196 12.5347 0 12.2574 0H5.22501C4.94773 0 4.72269 0.196 4.72269 0.4375V0.875H1.20647C1.07185 0.875 0.94326 0.92225 0.848825 1.00538C0.754389 1.0885 0.702148 1.20138 0.704157 1.31863C0.705162 1.372 0.852844 6.552 5.5264 7.32812C5.96341 7.83913 6.54811 8.246 7.23428 8.48925V10.0354C7.23428 10.9358 6.61341 11.7311 5.64695 12.0627L5.03413 12.2815C4.84626 12.3497 4.72269 12.5099 4.72269 12.6875V13.5625C4.72269 13.804 4.94773 14 5.22501 14H12.2574C12.5347 14 12.7598 13.804 12.7598 13.5625V12.6875C12.7598 12.5099 12.6362 12.3497 12.4473 12.2824L11.8285 12.0619C10.868 11.7311 10.2482 10.9366 10.2482 10.0362V8.49012C10.9353 8.246 11.52 7.83913 11.9561 7.32812ZM12.7598 5.25V1.75H15.7365C15.6079 2.80087 15.0353 5.41188 12.5649 6.272C12.6794 5.9465 12.7598 5.60787 12.7598 5.25ZM1.74194 1.75H4.72269V5.25C4.72269 5.60875 4.80306 5.94825 4.9186 6.27462C2.41505 5.41625 1.8615 2.807 1.74194 1.75Z" fill="#C89106"/>
</svg>
