<svg width="39" height="35" viewBox="0 0 39 35" fill="none" xmlns="http://www.w3.org/2000/svg">
<path d="M32.9062 16.4063H8.5928L17.9028 8.44813C18.3903 8.03141 18.4092 7.33907 17.9449 6.90157C17.4811 6.46462 16.7097 6.44712 16.2216 6.86384L5.58919 15.9529C5.12911 16.3663 4.875 16.9154 4.875 17.5C4.875 18.0841 5.12911 18.6337 5.61052 19.0652L16.2222 28.1356C16.458 28.3374 16.7603 28.4375 17.0625 28.4375C17.3842 28.4375 17.706 28.3238 17.9455 28.0979C18.4098 27.6604 18.3909 26.9686 17.9034 26.5519L8.55441 18.5938H32.9062C33.579 18.5938 34.125 18.1038 34.125 17.5C34.125 16.8963 33.579 16.4063 32.9062 16.4063V16.4063Z" fill="white"/>
</svg>
