<svg width="218" height="212" viewBox="0 0 218 212" fill="none" xmlns="http://www.w3.org/2000/svg">
<g filter="url(#filter0_d)">
<rect x="4" width="210" height="204" rx="25" fill="#998598"/>
</g>
<path d="M175.905 52.5728C174.11 52.5693 171.591 52.3811 169.814 52.658C167.167 53.1266 164.471 52.3527 161.803 52.2711C161.764 51.6179 162.261 50.45 162.236 49.8003C161.736 49.7364 161.239 49.7009 160.756 49.5873C160.306 47.965 160.48 46.254 160.427 44.5891C160.171 44.5855 159.657 44.5749 159.401 44.5678C159.32 46.4634 159.327 48.3591 159.305 50.2547C158.649 49.7187 158.191 48.6786 157.237 48.7531L131.176 48.7496C129.8 48.8987 128.725 47.9579 127.615 47.2941C127.508 46.4208 127.37 45.5546 127.2 44.6956C126.419 45.7712 126.348 47.1485 126.061 48.4159C123.989 48.8277 121.942 49.9885 119.831 50.1731C119.647 48.9519 119.452 47.7343 119.317 46.5025C120.434 45.9629 121.69 45.6008 122.616 44.7204C123.705 41.5326 122.446 38.217 121.726 35.1001C119.494 33.4743 117.021 32.0366 114.449 31H110.753C108.213 31.8307 105.683 33.1903 104.239 35.5829C102.004 39.0938 101.696 43.6022 103.101 47.5C102.902 47.6349 102.505 47.9118 102.306 48.0538C99.8864 46.1368 96.541 47.0846 94.2244 48.6928C90.8612 51.2451 89.0661 55.4198 88.3211 59.5377C87.5513 63.0273 87.8954 66.6092 88.307 70.1165C86.9163 70.4608 85.4901 70.5283 84.0746 70.6348C83.4822 70.6596 82.7336 70.8975 82.6698 71.6039C82.2441 74.3799 82.5598 77.234 81.9886 79.9923C81.6197 81.7602 81.382 83.5564 81.4423 85.3669C82.9926 85.7183 84.5536 86.0556 86.111 86.3857C85.0467 86.8756 83.8228 87.2235 83.0636 88.1926C82.3966 92.6691 83.986 97.0816 83.844 101.572C83.0636 102.254 82.088 102.868 81.8325 103.961C81.3536 105.25 82.1164 106.56 81.9283 107.877C81.7474 109.311 82.0702 110.738 82.5279 112.08C82.9571 113.205 82.5988 114.412 82.4285 115.559C81.9248 118.527 81.3465 121.501 81.2224 124.515C81.123 126.106 81.6729 127.746 81.1656 129.29C79.5124 133.081 76.7346 136.244 75.2659 140.131C74.6167 141.921 74.9466 143.965 74.0136 145.662C73.0167 147.572 71.6402 149.457 71.7644 151.747C71.6544 153.298 72.889 154.69 72.3675 156.241C71.5941 159.404 70.8172 162.57 69.9587 165.716C69.3769 167.806 69.2669 170.096 69.9161 172.184C70.7853 172.641 71.7644 172.794 72.7152 173H76.3728C77.5541 172.89 78.7248 172.691 79.9062 172.524C80.2468 170.884 79.8459 169.283 79.2925 167.757C78.6042 163.909 79.218 159.819 81.1372 156.425C81.8006 155.545 83.0068 155.204 83.4786 154.154C84.1846 152.652 84.5216 151.008 85.1673 149.482C86.0755 147.309 87.3172 145.268 87.8848 142.957C88.2005 141.693 87.8387 140.398 87.9522 139.12C88.2963 137.703 88.9313 136.315 89.9743 135.293C91.3721 133.983 91.9184 131.977 93.4475 130.788C94.4905 130.007 94.5401 128.608 94.7601 127.412C94.9658 125.829 95.4802 124.313 96.0514 122.833C96.8638 120.784 97.4243 118.537 98.9888 116.922C99.9822 115.882 100.479 114.497 100.841 113.12C101.462 114.324 101.958 115.658 102.955 116.603C104.073 117.163 105.701 116.862 106.379 118.143C108.326 121.111 108.472 122.801 110.426 125.768C111.359 127.611 113.609 127.16 115.272 127.21C116.23 128.527 117.298 128.907 116.979 130.504C116.918 132.304 115.4 133.692 115.613 135.534C115.78 139.283 116.056 143.064 117.028 146.695C117.369 148.388 118.249 149.943 118.277 151.704C118.32 153.742 117.933 157.079 117.525 159.091C116.532 161.786 115.854 164.604 115.727 167.491C118.075 168.875 120.785 167.469 123.24 168.289C125.933 169.18 128.757 169.5 131.577 169.447C133.312 169.415 135.05 169.244 136.757 168.978C136.767 167.995 137.087 166.926 136.64 166.007C135.221 164.328 132.847 164.32 131.123 163.16C129.729 161.903 128.59 160.369 127.427 158.896C126.444 157.739 127.76 156.138 127.721 154.679C127.735 152.464 127.725 150.181 128.541 148.094C129.144 146.432 128.941 144.636 128.615 142.943C128.175 140.859 128.92 138.804 129.112 136.741C129.388 133.93 129.587 131.111 129.764 128.292C129.892 126.684 129.342 125.151 128.952 123.621C128.721 122.179 127.352 121.367 126.951 120C124.603 113.518 122.453 108.182 117.827 103.013C116.049 101.242 115.152 98.2815 116.23 95.8995C117.231 96.1728 118.224 96.4746 119.239 96.7302C120.321 95.2711 121.378 93.6595 121.552 91.7851C121.729 89.854 121.782 87.9122 121.953 85.981C122.031 83.8759 122.485 81.7069 121.942 79.6409C121.587 78.228 120.193 77.6174 119.114 76.9004C119.373 75.917 119.636 74.9408 119.867 73.9504C123.425 75.6863 126.724 78.2032 130.708 78.8209C131.776 78.9842 132.918 79.4953 133.979 79.0055C135.441 78.3026 136.569 77.0743 137.846 76.0874C140.159 74.2663 139.84 70.9436 140.645 68.3451C141.433 68.0398 142.234 67.7593 143.033 67.4611C142.507 65.1572 141.592 62.8285 141.904 60.4252C142.862 59.1153 144.072 58.3308 145.069 57.0492C145.782 56.0766 147.017 55.8245 148.141 55.8529C151.529 55.8352 154.921 55.8955 158.312 55.8565C158.422 55.363 158.021 56.3499 158.142 55.8565C161.668 56.0588 165.198 55.292 168.731 55.7322C170.935 56.1121 173.893 55.9559 176.107 55.7926C175.99 55.1394 175.933 53.2224 175.905 52.5728ZM132.28 64.9869C131.609 63.787 130.605 62.6581 130.407 61.2736C130.513 61.1281 130.733 60.8477 130.839 60.7057C132.28 60.553 133.731 60.6489 135.175 60.7199C134.242 62.1611 133.255 63.574 132.28 64.9869ZM132.07 60.3436C133.028 59.8537 133.337 58.842 133.461 57.8231C134.231 57.7841 135.004 57.7592 135.785 57.7415C135.813 58.4905 135.838 59.2324 135.866 59.9815C134.618 60.2619 133.337 60.2584 132.07 60.3436ZM175.905 98.4483H151.071V91.3485H181.226C182.205 91.3485 183 90.5533 183 89.5735C183 86.6342 178.842 84.2487 175.905 84.2487H151.071C147.169 84.2487 143.976 87.4436 143.976 91.3485V98.4483C144.171 101.991 147.524 105.548 151.071 105.548H175.905V112.648H145.75C144.771 112.648 143.976 113.443 143.976 114.423C143.976 117.362 148.134 119.748 151.071 119.748H175.905C179.807 119.748 183 116.553 183 112.648V105.548C183 101.998 179.878 98.5158 175.905 98.4483ZM41.0952 91.3485H67.4044C68.5574 91.3485 69.4868 90.2445 69.1285 89.1475C68.2026 86.3041 65.5348 84.2487 62.381 84.2487H41.0952C37.1751 84.2487 34 87.4258 34 91.3485V112.648C34 116.571 37.1751 119.748 41.0952 119.748H62.381C65.5348 119.748 68.2026 117.692 69.1285 114.849C69.4833 113.752 68.5538 112.648 67.4044 112.648H41.0952V91.3485Z" fill="#E3D0D8"/>
<defs>
<filter id="filter0_d" x="0" y="0" width="218" height="212" filterUnits="userSpaceOnUse" color-interpolation-filters="sRGB">
<feFlood flood-opacity="0" result="BackgroundImageFix"/>
<feColorMatrix in="SourceAlpha" type="matrix" values="0 0 0 0 0 0 0 0 0 0 0 0 0 0 0 0 0 0 127 0"/>
<feOffset dy="4"/>
<feGaussianBlur stdDeviation="2"/>
<feColorMatrix type="matrix" values="0 0 0 0 0 0 0 0 0 0 0 0 0 0 0 0 0 0 0.25 0"/>
<feBlend mode="normal" in2="BackgroundImageFix" result="effect1_dropShadow"/>
<feBlend mode="normal" in="SourceGraphic" in2="effect1_dropShadow" result="shape"/>
</filter>
</defs>
</svg>
