<svg width="218" height="212" viewBox="0 0 218 212" fill="none" xmlns="http://www.w3.org/2000/svg">
<g filter="url(#filter0_d)">
<rect x="4" width="210" height="204" rx="25" fill="#998598"/>
</g>
<path d="M66.0002 37.7001C65.4431 37.7001 64.8969 37.85 64.423 38.1332C63.9491 38.4163 63.5661 38.8214 63.3169 39.3032C63.0678 39.7849 62.9623 40.3241 63.0123 40.8605C63.0624 41.3969 63.2659 41.9092 63.6002 42.3401L72.0002 53.1629V149.837L60.6002 160.66C60.2659 161.091 60.0624 161.603 60.0123 162.14C59.9623 162.676 60.0678 163.215 60.3169 163.697C60.5661 164.179 60.9491 164.584 61.423 164.867C61.8969 165.15 62.4431 165.3 63.0002 165.3H150C150.912 165.3 151.773 164.9 152.343 164.213L167.343 149.713C167.694 149.285 167.913 148.771 167.976 148.229C168.039 147.687 167.943 147.139 167.698 146.647C167.454 146.155 167.071 145.74 166.594 145.449C166.117 145.158 165.565 145.002 165 145H102V40.6001C102 39.8309 101.684 39.0933 101.122 38.5495C100.559 38.0056 99.7959 37.7001 99.0002 37.7001H66.0002ZM108 49.3001V55.1001C137.775 55.1001 162 78.5176 162 107.3C162 119.318 157.737 130.367 150.651 139.2H158.058C164.548 129.744 168.007 118.648 168 107.3C168 75.3189 141.084 49.3001 108 49.3001ZM108 60.9001V139.2H142.77C150.948 130.877 156 119.66 156 107.3C156 81.7163 134.466 60.9001 108 60.9001ZM66.0002 65.9461C55.6322 75.7887 48.9212 89.2186 48.0902 104.145C47.9382 106.89 47.9853 109.642 48.2312 112.381C49.5062 126.533 56.0792 139.235 66.0002 148.654V140.032C58.2315 130.777 53.9942 119.219 54.0002 107.3C53.9942 95.3811 58.2315 83.8233 66.0002 74.5678V65.9461ZM66.0002 84.886C62.06 91.7422 59.9949 99.4569 60.0002 107.3C60.0002 115.426 62.1872 123.064 66.0002 129.714V84.8831V84.886Z" fill="#E3D0D8"/>
<defs>
<filter id="filter0_d" x="0" y="0" width="218" height="212" filterUnits="userSpaceOnUse" color-interpolation-filters="sRGB">
<feFlood flood-opacity="0" result="BackgroundImageFix"/>
<feColorMatrix in="SourceAlpha" type="matrix" values="0 0 0 0 0 0 0 0 0 0 0 0 0 0 0 0 0 0 127 0"/>
<feOffset dy="4"/>
<feGaussianBlur stdDeviation="2"/>
<feColorMatrix type="matrix" values="0 0 0 0 0 0 0 0 0 0 0 0 0 0 0 0 0 0 0.25 0"/>
<feBlend mode="normal" in2="BackgroundImageFix" result="effect1_dropShadow"/>
<feBlend mode="normal" in="SourceGraphic" in2="effect1_dropShadow" result="shape"/>
</filter>
</defs>
</svg>
