<svg width="1120" height="176" viewBox="0 0 1120 176" fill="none" xmlns="http://www.w3.org/2000/svg">
<path d="M80.5874 88.016H101.899V128.912C96.4274 133.04 90.0914 136.208 82.8914 138.416C75.6914 140.624 68.4434 141.728 61.1474 141.728C50.6834 141.728 41.2754 139.52 32.9234 135.104C24.5714 130.592 17.9954 124.4 13.1954 116.528C8.49144 108.56 6.13944 99.584 6.13944 89.6C6.13944 79.616 8.49144 70.688 13.1954 62.816C17.9954 54.848 24.6194 48.656 33.0674 44.24C41.5154 39.728 51.0194 37.472 61.5794 37.472C70.4114 37.472 78.4274 38.96 85.6274 41.936C92.8274 44.912 98.8754 49.232 103.771 54.896L88.7954 68.72C81.5954 61.136 72.9074 57.344 62.7314 57.344C56.2994 57.344 50.5874 58.688 45.5954 61.376C40.6034 64.064 36.7154 67.856 33.9314 72.752C31.1474 77.648 29.7554 83.264 29.7554 89.6C29.7554 95.84 31.1474 101.408 33.9314 106.304C36.7154 111.2 40.5554 115.04 45.4514 117.824C50.4434 120.512 56.1074 121.856 62.4434 121.856C69.1634 121.856 75.2114 120.416 80.5874 117.536V88.016ZM189.953 118.4H143.153L134.225 140H110.321L155.249 39.2H178.289L223.361 140H198.881L189.953 118.4ZM182.609 100.688L166.625 62.096L150.641 100.688H182.609ZM325.547 140L325.403 79.52L295.739 129.344H285.227L255.707 80.816V140H233.819V39.2H253.115L290.843 101.84L327.995 39.2H347.147L347.435 140H325.547ZM449.398 121.28V140H371.35V39.2H447.526V57.92H394.534V79.808H441.334V97.952H394.534V121.28H449.398ZM501.08 141.728C493.112 141.728 485.384 140.672 477.896 138.56C470.504 136.352 464.552 133.52 460.04 130.064L467.96 112.496C472.28 115.664 477.416 118.208 483.368 120.128C489.32 122.048 495.272 123.008 501.224 123.008C507.848 123.008 512.744 122.048 515.912 120.128C519.08 118.112 520.664 115.472 520.664 112.208C520.664 109.808 519.704 107.84 517.784 106.304C515.96 104.672 513.56 103.376 510.584 102.416C507.704 101.456 503.768 100.4 498.776 99.248C491.096 97.424 484.808 95.6 479.912 93.776C475.016 91.952 470.792 89.024 467.24 84.992C463.784 80.96 462.056 75.584 462.056 68.864C462.056 63.008 463.64 57.728 466.808 53.024C469.976 48.224 474.728 44.432 481.064 41.648C487.496 38.864 495.32 37.472 504.536 37.472C510.968 37.472 517.256 38.24 523.4 39.776C529.544 41.312 534.92 43.52 539.528 46.4L532.328 64.112C523.016 58.832 513.704 56.192 504.392 56.192C497.864 56.192 493.016 57.248 489.848 59.36C486.776 61.472 485.24 64.256 485.24 67.712C485.24 71.168 487.016 73.76 490.568 75.488C494.216 77.12 499.736 78.752 507.128 80.384C514.808 82.208 521.096 84.032 525.992 85.856C530.888 87.68 535.064 90.56 538.52 94.496C542.072 98.432 543.848 103.76 543.848 110.48C543.848 116.24 542.216 121.52 538.952 126.32C535.784 131.024 530.984 134.768 524.552 137.552C518.12 140.336 510.296 141.728 501.08 141.728ZM603.42 39.2C612.348 39.2 620.076 40.688 626.604 43.664C633.228 46.64 638.316 50.864 641.868 56.336C645.42 61.808 647.196 68.288 647.196 75.776C647.196 83.168 645.42 89.648 641.868 95.216C638.316 100.688 633.228 104.912 626.604 107.888C620.076 110.768 612.348 112.208 603.42 112.208H583.116V140H559.788V39.2H603.42ZM602.124 93.2C609.132 93.2 614.46 91.712 618.108 88.736C621.756 85.664 623.58 81.344 623.58 75.776C623.58 70.112 621.756 65.792 618.108 62.816C614.46 59.744 609.132 58.208 602.124 58.208H583.116V93.2H602.124ZM714.073 141.728C703.609 141.728 694.153 139.472 685.705 134.96C677.353 130.448 670.777 124.256 665.977 116.384C661.273 108.416 658.921 99.488 658.921 89.6C658.921 79.712 661.273 70.832 665.977 62.96C670.777 54.992 677.353 48.752 685.705 44.24C694.153 39.728 703.609 37.472 714.073 37.472C724.537 37.472 733.945 39.728 742.297 44.24C750.649 48.752 757.225 54.992 762.025 62.96C766.825 70.832 769.225 79.712 769.225 89.6C769.225 99.488 766.825 108.416 762.025 116.384C757.225 124.256 750.649 130.448 742.297 134.96C733.945 139.472 724.537 141.728 714.073 141.728ZM714.073 121.856C720.025 121.856 725.401 120.512 730.201 117.824C735.001 115.04 738.745 111.2 741.433 106.304C744.217 101.408 745.609 95.84 745.609 89.6C745.609 83.36 744.217 77.792 741.433 72.896C738.745 68 735.001 64.208 730.201 61.52C725.401 58.736 720.025 57.344 714.073 57.344C708.121 57.344 702.745 58.736 697.945 61.52C693.145 64.208 689.353 68 686.569 72.896C683.881 77.792 682.537 83.36 682.537 89.6C682.537 95.84 683.881 101.408 686.569 106.304C689.353 111.2 693.145 115.04 697.945 117.824C702.745 120.512 708.121 121.856 714.073 121.856ZM806.23 58.208H773.974V39.2H861.814V58.208H829.558V140H806.23V58.208Z" fill="#51394F"/>
<path d="M881.278 141.152C877.342 141.152 874.03 139.808 871.342 137.12C868.654 134.432 867.31 131.072 867.31 127.04C867.31 122.912 868.654 119.6 871.342 117.104C874.03 114.512 877.342 113.216 881.278 113.216C885.214 113.216 888.526 114.512 891.214 117.104C893.902 119.6 895.246 122.912 895.246 127.04C895.246 131.072 893.902 134.432 891.214 137.12C888.526 139.808 885.214 141.152 881.278 141.152ZM977.353 88.016H998.665V128.912C993.193 133.04 986.857 136.208 979.657 138.416C972.457 140.624 965.209 141.728 957.913 141.728C947.449 141.728 938.041 139.52 929.689 135.104C921.337 130.592 914.761 124.4 909.961 116.528C905.257 108.56 902.905 99.584 902.905 89.6C902.905 79.616 905.257 70.688 909.961 62.816C914.761 54.848 921.385 48.656 929.833 44.24C938.281 39.728 947.785 37.472 958.345 37.472C967.177 37.472 975.193 38.96 982.393 41.936C989.593 44.912 995.641 49.232 1000.54 54.896L985.561 68.72C978.361 61.136 969.673 57.344 959.497 57.344C953.065 57.344 947.353 58.688 942.361 61.376C937.369 64.064 933.481 67.856 930.697 72.752C927.913 77.648 926.521 83.264 926.521 89.6C926.521 95.84 927.913 101.408 930.697 106.304C933.481 111.2 937.321 115.04 942.217 117.824C947.209 120.512 952.873 121.856 959.209 121.856C965.929 121.856 971.977 120.416 977.353 117.536V88.016ZM1088.45 88.016H1109.76V128.912C1104.29 133.04 1097.95 136.208 1090.75 138.416C1083.55 140.624 1076.3 141.728 1069.01 141.728C1058.54 141.728 1049.13 139.52 1040.78 135.104C1032.43 130.592 1025.85 124.4 1021.05 116.528C1016.35 108.56 1014 99.584 1014 89.6C1014 79.616 1016.35 70.688 1021.05 62.816C1025.85 54.848 1032.48 48.656 1040.93 44.24C1049.37 39.728 1058.88 37.472 1069.44 37.472C1078.27 37.472 1086.29 38.96 1093.49 41.936C1100.69 44.912 1106.73 49.232 1111.63 54.896L1096.65 68.72C1089.45 61.136 1080.77 57.344 1070.59 57.344C1064.16 57.344 1058.45 58.688 1053.45 61.376C1048.46 64.064 1044.57 67.856 1041.79 72.752C1039.01 77.648 1037.61 83.264 1037.61 89.6C1037.61 95.84 1039.01 101.408 1041.79 106.304C1044.57 111.2 1048.41 115.04 1053.31 117.824C1058.3 120.512 1063.97 121.856 1070.3 121.856C1077.02 121.856 1083.07 120.416 1088.45 117.536V88.016Z" fill="#827081"/>
</svg>
