<svg width="19" height="19" viewBox="0 0 19 19" fill="none" xmlns="http://www.w3.org/2000/svg">
<path d="M18.1139 17.0784L12.9495 12.0674C13.9291 10.894 14.5187 9.40228 14.5187 7.77815C14.5187 4.01312 11.3618 0.949997 7.48161 0.949997C3.60139 0.949997 0.44458 4.01312 0.44458 7.77815C0.44458 11.5432 3.60143 14.6063 7.48164 14.6063C9.15547 14.6063 10.6928 14.0341 11.9021 13.0837L17.0664 18.0947C17.2111 18.2351 17.4456 18.2351 17.5902 18.0947L18.1139 17.5866C18.2585 17.4463 18.2585 17.2187 18.1139 17.0784ZM7.48164 13.1688C4.41813 13.1688 1.92608 10.7507 1.92608 7.77815C1.92608 4.80558 4.41813 2.38751 7.48164 2.38751C10.5452 2.38751 13.0372 4.80558 13.0372 7.77815C13.0372 10.7507 10.5452 13.1688 7.48164 13.1688Z" fill="white"/>
</svg>
