<svg width="54" height="50" viewBox="0 0 54 50" fill="none" xmlns="http://www.w3.org/2000/svg">
<path d="M39.1574 45.9668H28.6249V42.0674C32.9813 41.6119 37.1806 39.5834 40.875 36.1321C48.7612 28.7574 53.4706 15.9818 53.4706 1.95691C53.4706 0.947416 52.6233 0.127382 51.5802 0.127382H42.6731C41.6309 0.127382 40.7835 0.947416 40.7835 1.95691V4.42218H12.6874V1.95612C12.6874 0.946621 11.8397 0.126587 10.797 0.126587H1.89074C0.847286 0.126587 0 0.946621 0 1.95612C0 15.9818 4.70932 28.7566 12.5952 36.1297C16.2849 39.5802 20.4864 41.6103 24.8428 42.0656V45.9652H14.3102C13.2675 45.9652 12.4198 46.7852 12.4198 47.7947C12.4198 48.805 13.2675 49.6243 14.3102 49.6243H39.1556C40.2019 49.6243 41.0459 48.805 41.0459 47.7947C41.0461 46.7852 40.2038 45.9668 39.1574 45.9668ZM44.5636 3.78525H49.6587C49.2754 15.6366 45.1863 26.631 38.7626 33.0017C38.802 32.9324 38.8334 32.8545 38.8711 32.7842C39.2644 32.0534 39.6386 31.294 39.9964 30.497C40.0589 30.3553 40.119 30.208 40.1823 30.0646C40.5277 29.2677 40.8577 28.4486 41.1646 27.595C41.1876 27.532 41.2122 27.4708 41.2336 27.4079C41.5511 26.5162 41.8422 25.5887 42.1155 24.6417C42.1698 24.455 42.224 24.2711 42.275 24.0824C42.5367 23.1473 42.7752 22.1897 42.9908 21.2088C43.0311 21.0297 43.068 20.8494 43.1052 20.6695C43.3191 19.6671 43.5139 18.6481 43.6818 17.6056C43.6883 17.5673 43.6966 17.5308 43.7007 17.4921C43.8709 16.4269 44.006 15.3377 44.1268 14.2362C44.1507 14.0288 44.1737 13.8243 44.1959 13.6156C44.3012 12.5428 44.3875 11.4552 44.4469 10.3545C44.46 10.1484 44.4666 9.9414 44.4764 9.73523C44.529 8.58321 44.5637 7.42402 44.5637 6.24973V3.78525H44.5636ZM3.81067 3.78525H8.90589V6.25052C8.90589 7.42469 8.94041 8.584 8.99439 9.73603C9.00466 9.9422 9.01206 10.1493 9.02398 10.3555C9.08288 11.456 9.16713 12.5436 9.27494 13.6165C9.29426 13.8251 9.31988 14.0298 9.34166 14.2362C9.46303 15.3385 9.6003 16.4276 9.77016 17.4929C9.77551 17.5316 9.7829 17.5665 9.78948 17.6046C9.95647 18.6509 10.1518 19.6699 10.3657 20.6734C10.4028 20.851 10.4372 21.0305 10.4764 21.2058C10.6961 22.1898 10.9346 23.1504 11.1957 24.0869C11.2479 24.272 11.2988 24.4527 11.354 24.6347C11.6293 25.5857 11.92 26.5171 12.2375 27.4112C12.2568 27.4685 12.2794 27.5218 12.3016 27.5784C12.6113 28.4422 12.9441 29.2718 13.2937 30.0759C13.3526 30.2129 13.4093 30.3538 13.4706 30.4875C13.8304 31.2892 14.2093 32.0566 14.6054 32.7923C14.6399 32.8575 14.672 32.9331 14.7066 32.9977C8.27985 26.6302 4.19479 15.6358 3.81067 3.78525Z" fill="#FFE600"/>
</svg>
