<svg width="54" height="52" viewBox="0 0 54 52" fill="none" xmlns="http://www.w3.org/2000/svg">
<g clip-path="url(#clip0)">
<path d="M39.1574 46.9668H28.6249V43.0674C32.9813 42.6119 37.1806 40.5834 40.875 37.1321C48.7612 29.7574 53.4706 16.9818 53.4706 2.95691C53.4706 1.94742 52.6233 1.12738 51.5802 1.12738H42.6731C41.6309 1.12738 40.7835 1.94742 40.7835 2.95691V5.42218H12.6874V2.95612C12.6874 1.94662 11.8397 1.12659 10.797 1.12659H1.89074C0.847286 1.12659 0 1.94662 0 2.95612C0 16.9818 4.70932 29.7566 12.5952 37.1297C16.2849 40.5802 20.4864 42.6103 24.8428 43.0656V46.9652H14.3102C13.2675 46.9652 12.4198 47.7852 12.4198 48.7947C12.4198 49.805 13.2675 50.6243 14.3102 50.6243H39.1556C40.2019 50.6243 41.0459 49.805 41.0459 48.7947C41.0461 47.7852 40.2038 46.9668 39.1574 46.9668ZM44.5636 4.78525H49.6587C49.2754 16.6366 45.1863 27.631 38.7626 34.0017C38.802 33.9324 38.8334 33.8545 38.8711 33.7842C39.2644 33.0534 39.6386 32.294 39.9964 31.497C40.0589 31.3553 40.119 31.208 40.1823 31.0646C40.5277 30.2677 40.8577 29.4486 41.1646 28.595C41.1876 28.532 41.2122 28.4708 41.2336 28.4079C41.5511 27.5162 41.8422 26.5887 42.1155 25.6417C42.1698 25.455 42.224 25.2711 42.275 25.0824C42.5367 24.1473 42.7752 23.1897 42.9908 22.2088C43.0311 22.0297 43.068 21.8494 43.1052 21.6695C43.3191 20.6671 43.5139 19.6481 43.6818 18.6056C43.6883 18.5673 43.6966 18.5308 43.7007 18.4921C43.8709 17.4269 44.006 16.3377 44.1268 15.2362C44.1507 15.0288 44.1737 14.8243 44.1959 14.6156C44.3012 13.5428 44.3875 12.4552 44.4469 11.3545C44.46 11.1484 44.4666 10.9414 44.4764 10.7352C44.529 9.58321 44.5637 8.42402 44.5637 7.24973V4.78525H44.5636ZM3.81067 4.78525H8.90589V7.25052C8.90589 8.42469 8.94041 9.584 8.99439 10.736C9.00466 10.9422 9.01206 11.1493 9.02398 11.3555C9.08288 12.456 9.16713 13.5436 9.27494 14.6165C9.29426 14.8251 9.31988 15.0298 9.34166 15.2362C9.46303 16.3385 9.6003 17.4276 9.77016 18.4929C9.77551 18.5316 9.7829 18.5665 9.78948 18.6046C9.95647 19.6509 10.1518 20.6699 10.3657 21.6734C10.4028 21.851 10.4372 22.0305 10.4764 22.2058C10.6961 23.1898 10.9346 24.1504 11.1957 25.0869C11.2479 25.272 11.2988 25.4527 11.354 25.6347C11.6293 26.5857 11.92 27.5171 12.2375 28.4112C12.2568 28.4685 12.2794 28.5218 12.3016 28.5784C12.6113 29.4422 12.9441 30.2718 13.2937 31.0759C13.3526 31.2129 13.4093 31.3538 13.4706 31.4875C13.8304 32.2892 14.2093 33.0566 14.6054 33.7923C14.6399 33.8575 14.672 33.9331 14.7066 33.9977C8.27985 27.6302 4.19479 16.6358 3.81067 4.78525Z" fill="#DE970C"/>
</g>
<defs>
<clipPath id="clip0">
<rect width="53.4706" height="51.7507" fill="white"/>
</clipPath>
</defs>
</svg>
