<svg width="48" height="52" viewBox="0 0 48 52" fill="none" xmlns="http://www.w3.org/2000/svg">
<path d="M35.5432 21.6745C34.2088 19.2339 30.0712 17.5145 24.8064 17.3524V5.2H24.6816C23.8968 2.18313 19.0608 0 12.8064 0C6.552 0 1.716 2.18313 0.931196 5.2H0.806396V41.6C0.810896 41.8937 0.852896 42.1854 0.931196 42.4667H0.806396V45.9333C0.806396 49.3922 5.9656 52 12.8064 52C18.4512 52 22.9416 50.2225 24.3432 47.6589C29.8272 47.5887 34.1696 45.8389 35.5432 43.3255C42.2136 43.2406 47.2064 40.6675 47.2064 37.2667V27.7333C47.2064 24.3325 42.2136 21.7594 35.5432 21.6745ZM23.2064 45.9333C23.2064 47.983 18.9352 50.2667 12.8064 50.2667C6.6776 50.2667 2.4064 47.983 2.4064 45.9333V44.7053C4.4416 46.5036 8.2464 47.6667 12.8064 47.6667C17.3664 47.6667 21.1712 46.5036 23.2064 44.7053V45.9333ZM23.2064 41.6C23.2064 43.6497 18.9352 45.9333 12.8064 45.9333C6.6776 45.9333 2.4064 43.6497 2.4064 41.6V40.3719C4.4416 42.1703 8.2464 43.3333 12.8064 43.3333C17.3664 43.3333 21.1712 42.1703 23.2064 40.3719V41.6ZM23.2064 37.2667C23.2064 39.3163 18.9352 41.6 12.8064 41.6C6.6776 41.6 2.4064 39.3163 2.4064 37.2667V36.0386C4.4416 37.8369 8.2464 39 12.8064 39C17.3664 39 21.1712 37.8369 23.2064 36.0386V37.2667ZM23.2064 32.9333C23.2064 34.983 18.9352 37.2667 12.8064 37.2667C6.6776 37.2667 2.4064 34.983 2.4064 32.9333V31.7053C4.4416 33.5036 8.2464 34.6667 12.8064 34.6667C17.3664 34.6667 21.1712 33.5036 23.2064 31.7053V32.9333ZM23.2064 28.6C23.2064 30.6497 18.9352 32.9333 12.8064 32.9333C6.6776 32.9333 2.4064 30.6497 2.4064 28.6V27.3719C4.4416 29.1703 8.2464 30.3333 12.8064 30.3333C17.3664 30.3333 21.1712 29.1703 23.2064 27.3719V28.6ZM23.2064 24.2667C23.2064 26.3163 18.9352 28.6 12.8064 28.6C6.6776 28.6 2.4064 26.3163 2.4064 24.2667V23.0386C4.4416 24.8369 8.2464 26 12.8064 26C17.3664 26 21.1712 24.8369 23.2064 23.0386V24.2667ZM23.2064 19.9333C23.2064 21.983 18.9352 24.2667 12.8064 24.2667C6.6776 24.2667 2.4064 21.983 2.4064 19.9333V18.7053C4.4416 20.5036 8.2464 21.6667 12.8064 21.6667C17.3664 21.6667 21.1712 20.5036 23.2064 18.7053V19.9333ZM23.2064 15.6C23.2064 17.6497 18.9352 19.9333 12.8064 19.9333C6.6776 19.9333 2.4064 17.6497 2.4064 15.6V14.3719C4.4416 16.1703 8.2464 17.3333 12.8064 17.3333C17.3664 17.3333 21.1712 16.1703 23.2064 14.3719V15.6ZM23.2064 11.2667C23.2064 13.3163 18.9352 15.6 12.8064 15.6C6.6776 15.6 2.4064 13.3163 2.4064 11.2667V10.0386C4.4416 11.8369 8.2464 13 12.8064 13C17.3664 13 21.1712 11.8369 23.2064 10.0386V11.2667ZM23.2064 6.93333C23.2064 8.983 18.9352 11.2667 12.8064 11.2667C6.6776 11.2667 2.4064 8.983 2.4064 6.93333V6.06667C2.4064 4.017 6.6776 1.73333 12.8064 1.73333C18.9352 1.73333 23.2064 4.017 23.2064 6.06667V6.93333ZM34.4064 41.6C34.4064 43.5587 30.5008 45.7262 24.8064 45.9151V43.3151C29.0104 43.1869 32.492 42.0637 34.4064 40.3685V41.6ZM34.4064 37.2667C34.4064 39.2253 30.5008 41.3929 24.8064 41.5818V39.8667V38.9809C29.0104 38.8527 32.492 37.7295 34.4064 36.0343V37.2667ZM34.4064 32.9333C34.4064 34.892 30.5008 37.0595 24.8064 37.2485V35.5333V34.6476C29.0104 34.5193 32.492 33.3961 34.4064 31.7009V32.9333ZM34.4064 28.6C34.4064 30.5587 30.5008 32.7262 24.8064 32.9151V30.3151C29.0104 30.1869 32.492 29.0637 34.4064 27.3685V28.6ZM34.4064 24.2667C34.4064 26.2253 30.5008 28.3929 24.8064 28.5818V19.0849C30.5008 19.2738 34.4064 21.4413 34.4064 23.4V24.2667ZM45.6064 37.2667C45.6064 39.2253 41.7008 41.3929 36.0064 41.5818V38.9818C40.2104 38.8535 43.692 37.7303 45.6064 36.0351V37.2667ZM45.6064 32.9333C45.6064 34.892 41.7008 37.0595 36.0064 37.2485V34.6485C40.2104 34.5202 43.692 33.397 45.6064 31.7018V32.9333ZM45.6064 28.6C45.6064 30.5587 41.7008 32.7262 36.0064 32.9151V23.4182C41.7008 23.6071 45.6064 25.7747 45.6064 27.7333V28.6Z" fill="#E3D0D8"/>
</svg>
