<svg width="59" height="54" viewBox="0 0 59 54" fill="none" xmlns="http://www.w3.org/2000/svg">
<path d="M43.2541 49.8233H31.8542V45.6037C36.5694 45.1109 41.1146 42.9157 45.1132 39.1811C53.6489 31.2008 58.7461 17.3762 58.7461 2.1997C58.7461 1.10731 57.829 0.219947 56.7 0.219947H47.0594C45.9313 0.219947 45.0141 1.10731 45.0141 2.1997V4.8674H14.6043V2.19884C14.6043 1.10645 13.6868 0.219086 12.5583 0.219086H2.91849C1.7891 0.219086 0.87204 1.10645 0.87204 2.19884C0.87204 17.3762 5.96919 31.1999 14.5045 39.1785C18.498 42.9123 23.0455 45.1091 27.7607 45.6018V49.8216H16.3607C15.2322 49.8216 14.3147 50.709 14.3147 51.8013C14.3147 52.8946 15.2322 53.7811 16.3607 53.7811H43.2522C44.3847 53.7811 45.2982 52.8946 45.2982 51.8013C45.2984 50.709 44.3868 49.8233 43.2541 49.8233ZM49.1055 4.17817H54.6202C54.2054 17.0026 49.7796 28.8998 42.8268 35.7936C42.8695 35.7187 42.9035 35.6343 42.9443 35.5583C43.3699 34.7675 43.775 33.9457 44.1623 33.0833C44.2299 32.9299 44.295 32.7705 44.3635 32.6154C44.7373 31.753 45.0945 30.8666 45.4266 29.943C45.4515 29.8748 45.4782 29.8085 45.5014 29.7405C45.845 28.7755 46.1601 27.772 46.4559 26.7472C46.5146 26.5451 46.5734 26.3461 46.6285 26.142C46.9117 25.1301 47.1699 24.0938 47.4032 23.0324C47.4468 22.8386 47.4869 22.6435 47.527 22.4488C47.7586 21.3641 47.9695 20.2614 48.1511 19.1333C48.1582 19.0918 48.1671 19.0524 48.1716 19.0105C48.3559 17.8578 48.5021 16.6792 48.6329 15.4873C48.6587 15.2629 48.6836 15.0415 48.7076 14.8157C48.8216 13.6549 48.915 12.478 48.9792 11.2869C48.9935 11.0638 49.0006 10.8398 49.0112 10.6167C49.0682 9.37009 49.1057 8.11573 49.1057 6.845V4.17817H49.1055ZM4.99653 4.17817H10.5114V6.84587C10.5114 8.11644 10.5487 9.37095 10.6071 10.6176C10.6183 10.8407 10.6263 11.0648 10.6392 11.2879C10.7029 12.4788 10.7941 13.6557 10.9108 14.8167C10.9317 15.0424 10.9594 15.2639 10.983 15.4873C11.1144 16.6801 11.2629 17.8586 11.4468 19.0113C11.4526 19.0532 11.4606 19.091 11.4677 19.1323C11.6485 20.2644 11.8599 21.3671 12.0913 22.4531C12.1315 22.6452 12.1687 22.8394 12.2111 23.0291C12.449 24.0939 12.7071 25.1334 12.9897 26.1469C13.0462 26.3472 13.1014 26.5427 13.1611 26.7395C13.459 27.7687 13.7736 28.7765 14.1173 29.7441C14.1382 29.8061 14.1627 29.8638 14.1867 29.925C14.522 30.8597 14.8821 31.7574 15.2605 32.6276C15.3243 32.7758 15.3857 32.9283 15.4519 33.0729C15.8414 33.9405 16.2516 34.7709 16.6802 35.567C16.7176 35.6376 16.7523 35.7194 16.7898 35.7893C9.83375 28.8989 5.41228 17.0017 4.99653 4.17817Z" fill="#E3D0D8"/>
</svg>
