<svg width="66" height="63" viewBox="0 0 66 63" fill="none" xmlns="http://www.w3.org/2000/svg">
<g clip-path="url(#clip0)">
<path d="M64.3595 57.7518H63.0024V45.9391C63.0024 45.2124 62.3963 44.624 61.6454 44.624H44.0132V30.1882C44.0132 29.4633 43.4052 28.875 42.656 28.875H41.2989V24.9375C41.2989 24.2126 40.6929 23.6254 39.9438 23.6254H34.5175V20.9059C37.2854 20.5214 39.6697 18.9795 41.128 16.804C46.6975 14.4363 48.0109 7.09583 48.0645 6.77665C48.1302 6.39593 48.0189 6.00759 47.7605 5.71339C47.5022 5.42016 47.1247 5.24999 46.7252 5.24999H42.6559V3.9378C42.6559 3.21292 42.0498 2.62561 41.2988 2.62561H25.0219C24.2748 2.62561 23.6668 3.21292 23.6668 3.9378V5.24999H19.5975C19.2001 5.24999 18.8208 5.42016 18.5644 5.71339C18.3062 6.00759 18.1949 6.39593 18.2585 6.77665C18.3142 7.09583 19.6254 14.4363 25.1928 16.804C26.6552 18.9795 29.0396 20.5214 31.8053 20.9059V23.6255H26.379C25.6299 23.6255 25.0219 24.2127 25.0219 24.9376V28.8751H23.6668C22.9177 28.8751 22.3097 29.4634 22.3097 30.1883V39.3756H4.67561C3.92851 39.3756 3.32053 39.9639 3.32053 40.6868V57.7519H1.96341C1.21427 57.7519 0.606293 58.3383 0.606293 59.0631C0.606293 59.7878 1.21427 60.3743 1.96341 60.3743H4.67561H23.6668H42.656H61.6454H64.3595C65.1086 60.3743 65.7146 59.7878 65.7146 59.0631C65.7146 58.3383 65.1085 57.7518 64.3595 57.7518ZM42.656 11.8129V7.87535H44.9987C44.6052 9.13758 43.8761 10.9525 42.6342 12.4212C42.6501 12.2194 42.656 12.0175 42.656 11.8129ZM21.3302 7.87535H23.6668V11.8129C23.6668 12.0137 23.6747 12.2137 23.6867 12.4116C22.4547 10.9458 21.7235 9.13462 21.3302 7.87535ZM22.3097 57.7518H6.03272V42.0016H22.3097V57.7518ZM26.379 11.8129V5.24999H39.9438V11.8129C39.9438 15.4311 36.8999 18.3757 33.1604 18.3757C29.4211 18.3757 26.379 15.4313 26.379 11.8129ZM27.7362 26.2506H38.5867V28.875H27.7362V26.2506ZM41.2989 45.9391V57.7518H25.0219V40.6867V31.5004H26.379H39.9438H41.2989V45.9391ZM60.2903 57.7518H44.0132V47.2503H60.2903V57.7518Z" fill="#E3D0D8"/>
<path d="M34.5175 13.1249V9.18752C34.5175 8.46265 33.9115 7.87534 33.1604 7.87534C32.4133 7.87534 31.8053 8.46265 31.8053 9.18752V13.1249C31.8053 13.8498 32.4133 14.4381 33.1604 14.4381C33.9115 14.4381 34.5175 13.8498 34.5175 13.1249Z" fill="#E3D0D8"/>
</g>
<defs>
<clipPath id="clip0">
<rect width="65.1083" height="63" fill="white" transform="translate(0.606293)"/>
</clipPath>
</defs>
</svg>
