<svg width="48" height="51" viewBox="0 0 48 51" fill="none" xmlns="http://www.w3.org/2000/svg">
<path d="M47.9912 17.8499C47.912 16.3956 46.284 15.2591 43.028 14.3921C43.1376 14.1371 43.1992 13.8719 43.2 13.5965V7.64993H43.1864C42.9 2.69613 23.7944 2.54993 21.6 2.54993C19.4056 2.54993 0.3 2.69613 0.0136 7.64993H0V7.76043V13.5991C0.004 15.2141 1.9656 16.478 4.884 17.419C4.844 17.5601 4.82 17.7037 4.812 17.8499H4.8V17.9604V23.7889C1.656 24.6491 0.0856 25.7694 0.008 27.1999H0V27.3104V33.1491C0.0024 34.2736 0.9568 35.2273 2.5184 36.0221C2.4592 36.1946 2.4224 36.3706 2.412 36.5508H2.4V36.6613V42.4999C2.4064 45.327 8.3976 47.0823 15.0544 47.9017C15.1032 47.9119 15.148 47.9331 15.2 47.9331C15.2152 47.9331 15.228 47.9246 15.2432 47.9238C16.5264 48.0776 17.8304 48.1975 19.1208 48.2833C19.148 48.2867 19.172 48.3003 19.2 48.3003C19.2152 48.3003 19.2272 48.2918 19.2416 48.291C20.88 48.3964 22.492 48.4499 24 48.4499C25.508 48.4499 27.12 48.3964 28.7584 48.2901C28.7728 48.291 28.7856 48.2995 28.8 48.2995C28.828 48.2995 28.852 48.285 28.8792 48.2825C30.1696 48.1966 31.4736 48.0776 32.7568 47.9229C32.772 47.9229 32.7848 47.9314 32.8 47.9314C32.852 47.9314 32.8968 47.9102 32.9456 47.9C39.6024 47.0806 45.5928 45.3245 45.6 42.4965V36.5499H45.5872C45.5312 35.5078 44.6952 34.6383 43.044 33.9115C43.1448 33.6659 43.2 33.4109 43.2 33.1465V27.5909C46.072 26.6525 47.996 25.3971 48 23.7965V17.8499H47.9912ZM41.5136 33.4228L41.2408 33.6769C40.8208 34.0705 40.1208 34.4674 39.2 34.8499V30.7971C40.1512 30.4452 40.9608 30.0551 41.6 29.6275V33.1448C41.6 33.2324 41.5696 33.3259 41.5136 33.4228ZM23.6208 37.3727C23.504 37.3761 23.3864 37.3778 23.2688 37.3804C22.9832 37.3863 22.6904 37.388 22.4008 37.3906V33.1448C22.6208 33.1423 22.8408 33.1389 23.0608 33.1346C23.1032 33.1338 23.1456 33.1329 23.188 33.1321C23.9936 33.1159 24.7992 33.0896 25.6008 33.0505V37.2945C25.4296 37.3039 25.2576 37.3124 25.084 37.32C24.6024 37.343 24.116 37.36 23.6208 37.3727ZM20.1272 37.3846C19.7608 37.3778 19.396 37.3685 19.0336 37.3566C18.9888 37.3549 18.944 37.3532 18.8992 37.3515C18.4632 37.3362 18.0304 37.3166 17.6008 37.2945V33.0513C18.4024 33.0913 19.208 33.1176 20.0136 33.1329C20.056 33.1338 20.0984 33.1346 20.14 33.1355C20.36 33.1397 20.58 33.1431 20.8 33.1457V37.394C20.6448 37.3923 20.4896 37.3923 20.3352 37.3897C20.2648 37.388 20.1968 37.3855 20.1272 37.3846ZM5.6776 35.4466C5.6512 35.4381 5.6264 35.4305 5.6 35.4228V31.3165C6.3472 31.5307 7.1504 31.7262 8 31.9038V36.0527C7.2656 35.8869 6.588 35.7127 5.9712 35.5342C5.8736 35.5044 5.7728 35.4764 5.6776 35.4466ZM22.54 42.4855C22.76 42.4897 22.98 42.4931 23.2 42.4957V46.7448C22.0944 46.7338 21.0272 46.6998 20 46.6462V42.4022C20.8016 42.4421 21.6072 42.4685 22.4128 42.4838C22.4552 42.4838 22.4976 42.4846 22.54 42.4855ZM25.5872 42.4829C26.3928 42.4668 27.1984 42.4404 28 42.4013V46.6454C26.9728 46.6989 25.9056 46.7329 24.8 46.744V42.4948C25.02 42.4923 25.24 42.4889 25.46 42.4846C25.5024 42.4846 25.5448 42.4838 25.5872 42.4829ZM32 42.0987V46.3198C31.2312 46.4057 30.4312 46.4813 29.6 46.5434V42.3044C30.4112 42.2483 31.2128 42.1795 32 42.0987ZM33.6 41.9151C34.4248 41.8097 35.2256 41.6899 36 41.5564V45.7299C35.2464 45.871 34.4456 46.0011 33.6 46.1192V41.9151ZM37.6 41.253C38.4496 41.0753 39.2528 40.8798 40 40.6656V44.772C39.2872 44.9904 38.4848 45.2021 37.6 45.4018V41.253ZM10.4 41.253V45.4018C9.5152 45.2021 8.7128 44.9904 8 44.772V40.6656C8.7472 40.8798 9.5504 41.0762 10.4 41.253ZM12 41.5573C12.7744 41.6907 13.5752 41.8106 14.4 41.916V46.1201C13.5544 46.0019 12.7536 45.8719 12 45.7308V41.5573ZM16 42.0987C16.7872 42.1795 17.5888 42.2483 18.4 42.3053V46.5442C17.5688 46.4822 16.7688 46.4065 16 46.3207V42.0987ZM14.0152 37.0157C13.9336 37.0072 13.8528 36.9979 13.772 36.9894C13.7144 36.9834 13.6576 36.9758 13.6 36.9698V32.7496C14.3872 32.8303 15.1888 32.8992 16 32.9561V37.1917C15.328 37.1407 14.664 37.0829 14.0152 37.0157ZM12 32.5651V36.7692C11.1544 36.6511 10.3536 36.521 9.6 36.3799V32.2064C10.3744 32.3399 11.1752 32.4606 12 32.5651ZM27.7328 37.1517C27.5568 37.1662 27.3792 37.1806 27.2 37.1942V32.9553C28.0112 32.8983 28.8128 32.8303 29.6 32.7487V36.9698C29.1056 37.0251 28.6 37.0769 28.0808 37.122C27.9648 37.133 27.8488 37.1424 27.7328 37.1517ZM31.2 36.7692V32.5651C32.0248 32.4597 32.8256 32.3399 33.6 32.2064V36.3799C32.8464 36.521 32.0456 36.6519 31.2 36.7692ZM35.2 31.903C36.0496 31.7253 36.8528 31.5298 37.6 31.3156V35.422C36.8872 35.6404 36.0848 35.8521 35.2 36.0518V31.903ZM24.26 28.0202C23.6584 28.004 23.0704 27.9794 22.4928 27.9496C22.4616 27.9479 22.4304 27.9462 22.4 27.9454V23.7013C23.2016 23.7413 24.0072 23.7676 24.8128 23.7829C24.8552 23.7838 24.8976 23.7846 24.9392 23.7855C25.1592 23.7897 25.3792 23.7931 25.5992 23.7957V28.0397C25.2096 28.0355 24.8168 28.0338 24.4368 28.0244C24.3784 28.0227 24.3184 28.0219 24.26 28.0202ZM5.6 15.8728V11.7665C6.3472 11.9807 7.1504 12.1762 8 12.3538V16.5027C7.9016 16.4806 7.8 16.4585 7.704 16.4364C7.2784 16.3369 6.8632 16.2332 6.4664 16.1236C6.164 16.0411 5.8768 15.957 5.6 15.8728ZM20.14 13.5855C20.36 13.5897 20.58 13.5931 20.8 13.5957V17.8397C19.7232 17.8287 18.6528 17.7989 17.6 17.7428V13.5022C18.4016 13.5421 19.2072 13.5685 20.0128 13.5838C20.0552 13.5838 20.0976 13.5846 20.14 13.5855ZM23.1872 13.5829C23.9928 13.5668 24.7984 13.5404 25.6 13.5013V17.742C25.464 17.7488 25.3336 17.759 25.1968 17.7658C25.1856 17.7666 25.1744 17.7666 25.1624 17.7675C24.6256 17.793 24.0784 17.8117 23.524 17.8253C23.4376 17.8278 23.3512 17.8287 23.2648 17.8312C22.98 17.8372 22.6888 17.838 22.4 17.8414V13.5957C22.62 13.5931 22.84 13.5897 23.06 13.5855C23.1024 13.5846 23.1448 13.5838 23.1872 13.5829ZM41.4168 14.0096L41.3944 14.0045L41.1032 14.2451C40.6808 14.5944 40.032 14.948 39.2 15.2897V11.2463C40.1512 10.8944 40.9608 10.5042 41.6 10.0767V13.594C41.6 13.7232 41.536 13.8626 41.4168 14.0096ZM31.2 17.2141V13.0151C32.0248 12.9097 32.8256 12.7899 33.6 12.6564V16.8231C32.8416 16.9659 32.0432 17.0968 31.2 17.2141ZM35.2 16.4959V12.3538C36.0496 12.1762 36.8528 11.9807 37.6 11.7665V15.8635C36.8832 16.0853 36.076 16.297 35.2 16.4959ZM29.6 13.1987V17.4147C28.8272 17.5014 28.0272 17.5771 27.2 17.64V13.4053C28.0112 13.3483 28.8128 13.2795 29.6 13.1987ZM13.6 17.4164V13.1987C14.3872 13.2795 15.1888 13.3483 16 13.4053V17.6366C15.1856 17.5745 14.3824 17.504 13.6 17.4164ZM12 13.0151V17.215C11.8416 17.1929 11.6768 17.175 11.52 17.1521C11.4176 17.1368 11.32 17.1206 11.2192 17.1053C10.7568 17.0348 10.3048 16.9591 9.8616 16.8801C9.7728 16.8639 9.6872 16.8469 9.6 16.8308V12.6573C10.3744 12.7899 11.1752 12.9106 12 13.0151ZM20.6016 27.8281C20.4936 27.8196 20.3848 27.8111 20.2776 27.8026C19.7656 27.7601 19.2656 27.7133 18.7776 27.6615C18.6728 27.6504 18.568 27.6385 18.464 27.6275C18.4424 27.6249 18.4216 27.6215 18.4 27.6198V23.3987C19.1872 23.4795 19.9888 23.5483 20.8 23.6053V27.8417C20.7352 27.8366 20.6664 27.8332 20.6016 27.8281ZM15.316 27.1931C14.9992 27.1396 14.7016 27.0818 14.4 27.0257V22.8573C15.1744 22.9907 15.9752 23.1106 16.8 23.216V27.4201C16.3104 27.3512 15.8312 27.2798 15.3712 27.2033C15.3528 27.1991 15.3344 27.1957 15.316 27.1931ZM12.8 22.553V26.695C11.916 26.4936 11.1144 26.2794 10.4 26.0567V21.9656C11.1472 22.1798 11.9504 22.3762 12.8 22.553ZM8.8 21.4463V25.4846C7.5424 24.9687 6.7312 24.4417 6.4672 23.9725L6.4136 23.8773C6.4088 23.8509 6.4008 23.8229 6.4 23.7965V20.2767C7.0392 20.7042 7.8488 21.0944 8.8 21.4463ZM27.9872 23.7829C28.7928 23.7668 29.5984 23.7404 30.4 23.7013V27.9411C29.3488 27.9964 28.28 28.027 27.2 28.0389V23.7957C27.42 23.7931 27.64 23.7897 27.86 23.7855C27.9024 23.7846 27.9448 23.7838 27.9872 23.7829ZM38.3256 27.0444C37.9744 27.109 37.62 27.1727 37.256 27.2314C37.0472 27.2654 36.8336 27.2977 36.6192 27.33C36.4168 27.3606 36.2064 27.3869 36.0008 27.415V23.2151C36.8256 23.1097 37.6264 22.9899 38.4008 22.8564V27.0299C38.3752 27.035 38.3504 27.0401 38.3256 27.0444ZM32.9088 27.7703C32.6104 27.7966 32.3024 27.8136 32 27.8366V23.6053C32.8112 23.5483 33.6128 23.4803 34.4 23.3987V27.6156C33.9352 27.6674 33.4712 27.7193 32.9936 27.7618C32.9648 27.7643 32.9376 27.7677 32.9088 27.7703ZM42.0512 26.1765C41.6528 26.2947 41.2312 26.4052 40.8008 26.5131C40.6016 26.5624 40.3984 26.6117 40.1904 26.6593C40.1288 26.6738 40.0632 26.6865 40.0008 26.701V22.5538C40.8504 22.3762 41.6536 22.1807 42.4008 21.9665V26.0728C42.2856 26.1068 42.1696 26.1417 42.0512 26.1765ZM46.3912 17.9052C46.3176 18.4823 45.0864 19.2499 42.8888 19.9715C40.0584 20.9006 35.6296 21.7514 30.0168 22.0149C29.7296 22.0277 29.4432 22.0404 29.1504 22.0506C28.9112 22.0591 28.6712 22.0668 28.4272 22.0736C27.7648 22.0889 27.0928 22.0999 26.4 22.0999C25.7072 22.0999 25.0352 22.0889 24.3728 22.0727C24.1296 22.0668 23.8896 22.0583 23.6496 22.0498C23.356 22.0404 23.0696 22.0268 22.7832 22.0141C17.1704 21.7506 12.7408 20.8997 9.9112 19.9707C7.7312 19.255 6.5024 18.4934 6.4112 17.9188C6.4152 17.9026 6.4152 17.889 6.4248 17.8686C6.4792 17.8831 6.54 17.895 6.5952 17.9094C6.908 17.9885 7.2288 18.065 7.5552 18.1381C9.1448 18.5019 10.9064 18.8002 12.7832 19.028C12.7896 19.028 12.7944 19.0314 12.8 19.0314C12.8016 19.0314 12.8032 19.0306 12.804 19.0306C14.0824 19.1853 15.4088 19.3068 16.7704 19.3927C16.7808 19.3927 16.7896 19.3986 16.8 19.3986C16.8056 19.3986 16.8096 19.3952 16.8152 19.3952C17.7952 19.4564 18.788 19.5015 19.7928 19.5253C20.408 19.5414 21.012 19.5499 21.6 19.5499C22.02 19.5499 22.4504 19.5448 22.8848 19.5363C28.6976 19.4411 34.0848 18.7067 37.8336 17.5686C38.0064 17.5167 38.1752 17.4632 38.3416 17.4096C38.4432 17.3765 38.5472 17.3442 38.6456 17.311C38.9352 17.2124 39.2128 17.1113 39.4808 17.0059C39.5272 16.9872 39.5712 16.9685 39.6176 16.9498C39.844 16.8588 40.0616 16.7645 40.2696 16.6684C40.3296 16.6404 40.3912 16.6132 40.4496 16.5851C40.6712 16.4789 40.8856 16.3701 41.084 16.257C41.1736 16.2069 41.2512 16.155 41.3352 16.104C41.4312 16.0454 41.5272 15.9859 41.616 15.9255C41.6664 15.8915 41.7264 15.8592 41.7744 15.8252C45.356 16.6506 46.3 17.5533 46.3912 17.9052ZM21.6 4.24993C34.7912 4.24993 41.4632 6.45653 41.588 7.72303C41.4912 8.29763 40.2632 9.05668 38.0888 9.77068C35.2584 10.6997 30.8296 11.5506 25.2168 11.8141C24.9296 11.8268 24.6432 11.8396 24.3504 11.8498C24.1112 11.8583 23.8712 11.8659 23.6272 11.8727C22.9648 11.8889 22.2928 11.8999 21.6 11.8999C20.9072 11.8999 20.2352 11.8889 19.5728 11.8727C19.3296 11.8668 19.0896 11.8583 18.8496 11.8498C18.556 11.8404 18.2696 11.8268 17.9832 11.8141C12.3704 11.5506 7.9408 10.6997 5.1112 9.77068C2.936 9.05668 1.7088 8.29763 1.612 7.72303C1.7368 6.45653 8.4088 4.24993 21.6 4.24993ZM1.6 13.5965V10.0767C2.2392 10.5042 3.0488 10.8944 4 11.2463V15.3161C2.444 14.6964 1.6016 14.0751 1.6 13.5965ZM5.4752 25.3597C5.4872 25.3733 5.5056 25.3852 5.5176 25.3988C6.6128 26.5735 8.8808 27.4966 11.704 28.1851C11.7688 28.2012 11.8376 28.2165 11.9032 28.2327C12.1104 28.282 12.3208 28.3304 12.5336 28.3772C15.1264 28.9637 18.2216 29.3878 21.5936 29.5978C21.596 29.5978 21.5976 29.5986 21.5992 29.5986C21.6008 29.5986 21.6016 29.5978 21.6024 29.5978C22.6856 29.6649 23.7936 29.7117 24.9248 29.7321C25.4256 29.7431 25.9184 29.7499 26.4 29.7499C26.952 29.7499 27.5184 29.7431 28.0944 29.7287C29.1408 29.7057 30.172 29.6598 31.1888 29.5969C31.1928 29.5969 31.196 29.5995 31.2 29.5995C31.2072 29.5995 31.2128 29.5952 31.22 29.5952C34.6008 29.3836 37.7728 28.9552 40.4552 28.3389C39.8744 28.6619 39.0792 28.996 38.0888 29.3215C35.1008 30.3024 30.3288 31.1958 24.264 31.4032C24.084 31.4091 23.9064 31.4159 23.724 31.421C23.528 31.4261 23.3288 31.4295 23.1296 31.4338C22.6264 31.4423 22.12 31.4499 21.6 31.4499C20.9072 31.4499 20.2352 31.4389 19.5728 31.4227C19.3296 31.4168 19.0896 31.4083 18.8496 31.3998C18.556 31.3904 18.2696 31.3768 17.9832 31.3641C12.3704 31.1006 7.9408 30.2497 5.1112 29.3207C2.9112 28.5982 1.68 27.8298 1.6088 27.2526C1.6976 26.933 2.5064 26.1332 5.4752 25.3597ZM1.6 33.1465V29.6267C2.2392 30.0542 3.0488 30.4444 4 30.7963V34.8499L3.5432 34.6612L3.5336 34.6714C2.2776 34.1181 1.6016 33.5749 1.6 33.1465ZM4 42.4965V38.9767C4.6392 39.4042 5.4488 39.7944 6.4 40.1463V44.2161C4.844 43.5964 4.0016 42.9751 4 42.4965ZM41.6 44.2161V40.1471C42.5512 39.7952 43.3608 39.4051 44 38.9775V42.4948C43.9992 42.9734 43.156 43.5956 41.6 44.2161ZM43.9896 36.6154C43.9024 37.1908 42.6736 37.9541 40.4888 38.6715C37.6584 39.6006 33.2296 40.4514 27.6168 40.7149C27.3296 40.7277 27.0432 40.7404 26.7504 40.7506C26.5112 40.7591 26.2712 40.7668 26.0272 40.7736C25.3648 40.7889 24.6928 40.7999 24 40.7999C23.3072 40.7999 22.6344 40.7889 21.9712 40.7727C21.7304 40.7668 21.4928 40.7583 21.2552 40.7498C20.96 40.7396 20.672 40.7268 20.3832 40.7141C14.7704 40.4506 10.3416 39.5997 7.5112 38.6707C5.3952 37.9762 4.1728 37.2384 4.0192 36.6689C4.2576 36.7573 4.5048 36.8432 4.7584 36.9273C4.784 36.9358 4.8096 36.9443 4.8352 36.952C5.0512 37.0225 5.272 37.0905 5.4984 37.1568C5.584 37.1823 5.6704 37.2078 5.7576 37.2325C5.8856 37.269 6.0168 37.3039 6.148 37.3396C9.0616 38.1326 12.7808 38.6945 16.796 38.9469C16.7976 38.9469 16.7984 38.9478 16.8 38.9478C16.8008 38.9478 16.8016 38.9469 16.8024 38.9469C18.0424 39.0251 19.3088 39.0736 20.5888 39.0897C20.9296 39.0965 21.268 39.0999 21.6 39.0999C22.0408 39.0999 22.492 39.094 22.9488 39.0855C24.116 39.0651 25.268 39.0192 26.3944 38.9478C26.3968 38.9478 26.3984 38.9495 26.4008 38.9495C26.4048 38.9495 26.4072 38.9469 26.4112 38.9469C27.7832 38.8594 29.1112 38.7344 30.3872 38.5789C30.392 38.5789 30.396 38.5814 30.4008 38.5814C30.4184 38.5814 30.4328 38.5721 30.4504 38.5704C31.8712 38.3961 33.2184 38.1819 34.4688 37.9329C34.7264 37.8827 34.98 37.8309 35.2312 37.7773C35.2872 37.7654 35.3432 37.7535 35.3992 37.7408C37.7616 37.2257 39.8064 36.5584 41.2096 35.7314C41.2864 35.6872 41.3584 35.6413 41.4312 35.5962C41.52 35.5401 41.6048 35.4832 41.6872 35.4254C41.764 35.3727 41.8528 35.3217 41.9232 35.2681C43.5024 35.8665 43.9376 36.402 43.9896 36.6154ZM44 25.5161V21.4471C44.9512 21.0952 45.7608 20.7051 46.4 20.2775V23.7948C46.3992 24.2734 45.556 24.8956 44 25.5161Z" fill="#E3D0D8"/>
</svg>
