<svg width="63" height="60" viewBox="0 0 63 60" fill="none" xmlns="http://www.w3.org/2000/svg">
<g clip-path="url(#clip0)">
<path d="M43.5827 31.2891C42.9143 31.2891 42.3718 30.7644 42.3718 30.1172C42.3718 29.47 42.9132 28.9453 43.5816 28.9453H43.5828C44.2513 28.9453 44.7931 29.47 44.7931 30.1172C44.7931 30.7644 44.2511 31.2891 43.5827 31.2891Z" fill="#E3D0D8"/>
<path d="M57.2683 34.8047H45.1654C44.497 34.8047 43.9551 34.28 43.9551 33.6328V26.6016C43.9551 25.9543 44.4971 25.4297 45.1654 25.4297H57.2683C57.9367 25.4297 58.4785 25.9543 58.4785 26.6016V33.6328C58.4785 34.28 57.9366 34.8047 57.2683 34.8047ZM46.3756 32.4609H56.0579V27.7734H46.3756V32.4609Z" fill="#E3D0D8"/>
<path d="M41.9999 12.027H38.1754V9.72891C38.1754 9.08203 37.6332 8.55703 36.9651 8.55703H24.8622C24.1942 8.55703 23.652 9.08203 23.652 9.72891V12.0727H20.3418V4.80703C20.3418 4.16016 19.7996 3.63516 19.1316 3.63516H15.2974V1.28906C15.2974 0.642187 14.7564 0.117188 14.0871 0.117188H1.98386C1.31583 0.117188 0.773621 0.642187 0.773621 1.28906V8.32031C0.773621 8.96719 1.31583 9.49219 1.98386 9.49219H14.0868C14.756 9.49219 15.297 8.96719 15.297 8.32031V5.97891H17.921V20.5102H15.297V18.1641C15.297 17.5172 14.756 16.9922 14.0868 16.9922H1.98386C1.31583 16.9922 0.773621 17.5172 0.773621 18.1641V25.1953C0.773621 25.8422 1.31583 26.3672 1.98386 26.3672H14.0868C14.756 26.3672 15.297 25.8422 15.297 25.1953V22.8539H19.1312C19.7993 22.8539 20.3415 22.3289 20.3415 21.682V14.4164H23.6516V16.7602C23.6516 17.407 24.1938 17.932 24.8619 17.932H36.9648C37.6328 17.932 38.175 17.407 38.175 16.7602V14.3707H40.7893V45.777H38.175V43.2445C38.175 42.5977 37.6328 42.0727 36.9648 42.0727H24.8619C24.1938 42.0727 23.6516 42.5977 23.6516 43.2445V45.5883H20.3415V38.3227C20.3415 37.6758 19.7993 37.1508 19.1312 37.1508H15.297V34.8047C15.297 34.1578 14.756 33.6328 14.0868 33.6328H1.98386C1.31583 33.6328 0.773621 34.1578 0.773621 34.8047V41.8359C0.773621 42.4828 1.31583 43.0078 1.98386 43.0078H14.0868C14.756 43.0078 15.297 42.4828 15.297 41.8359V39.4945H17.921V54.0258H15.297V51.6797C15.297 51.0328 14.756 50.5078 14.0868 50.5078H1.98386C1.31583 50.5078 0.773621 51.0328 0.773621 51.6797V58.7109C0.773621 59.3578 1.31583 59.8828 1.98386 59.8828H14.0868C14.756 59.8828 15.297 59.3578 15.297 58.7109V56.3695H19.1312C19.7993 56.3695 20.3415 55.8445 20.3415 55.1977V47.932H23.6516V50.2758C23.6516 50.9227 24.1938 51.4477 24.8619 51.4477H36.9648C37.6328 51.4477 38.175 50.9227 38.175 50.2758V48.1207H41.9995C42.6676 48.1207 43.2098 47.5957 43.2098 46.9488V13.1988C43.2101 12.552 42.6679 12.027 41.9999 12.027ZM12.8765 7.14844H3.19423V2.46094H12.8765V7.14844ZM12.8765 24.0234H3.19423V19.3359H12.8765V24.0234ZM35.7548 15.5883H26.0725V10.9008H35.7548V15.5883ZM12.8765 40.6641H3.19423V35.9766H12.8765V40.6641ZM12.8765 57.5391H3.19423V52.8516H12.8765V57.5391ZM35.7548 49.1039H26.0725V44.4164H35.7548V49.1039Z" fill="#E3D0D8"/>
</g>
<defs>
<clipPath id="clip0">
<rect width="62.0079" height="60" fill="white" transform="translate(0.773621)"/>
</clipPath>
</defs>
</svg>
