<svg width="52" height="52" viewBox="0 0 52 52" fill="none" xmlns="http://www.w3.org/2000/svg">
<path d="M48.9388 8.55509C48.3233 8.55384 47.4597 8.48744 46.8503 8.58516C45.943 8.75055 45.0185 8.47741 44.1039 8.4486C44.0905 8.21806 44.2608 7.80585 44.2523 7.57657C44.0808 7.55402 43.9105 7.54149 43.745 7.5014C43.5906 6.92882 43.6502 6.32492 43.6319 5.7373C43.5444 5.73605 43.368 5.73229 43.2804 5.72978C43.2524 6.39884 43.2549 7.06789 43.2476 7.73694C43.0226 7.54776 42.8656 7.18065 42.5385 7.20696L33.6033 7.20571C33.1314 7.25833 32.7628 6.92631 32.3821 6.69202C32.3456 6.3838 32.2982 6.07809 32.2398 5.77489C31.9722 6.15452 31.9479 6.64065 31.8494 7.08794C31.139 7.23328 30.4372 7.64298 29.7135 7.70813C29.6503 7.27713 29.5834 6.84738 29.5371 6.41262C29.9203 6.22218 30.3509 6.09438 30.6683 5.78366C31.0417 4.65855 30.6099 3.48833 30.363 2.38827C29.598 1.81444 28.7502 1.30701 27.8683 0.941162H26.6009C25.73 1.23434 24.8628 1.71421 24.3678 2.55867C23.6015 3.7978 23.4956 5.38899 23.9773 6.76469C23.9092 6.8123 23.773 6.91002 23.7049 6.96014C22.8753 6.28357 21.7283 6.6181 20.9341 7.18566C19.781 8.08651 19.1655 9.55993 18.9101 11.0133C18.6462 12.2449 18.7641 13.5091 18.9052 14.747C18.4284 14.8685 17.9395 14.8923 17.4542 14.9299C17.251 14.9387 16.9944 15.0226 16.9725 15.2719C16.8265 16.2517 16.9348 17.2591 16.739 18.2326C16.6125 18.8565 16.531 19.4905 16.5516 20.1295C17.0832 20.2535 17.6184 20.3725 18.1523 20.4891C17.7874 20.662 17.3678 20.7847 17.1075 21.1268C16.8788 22.7067 17.4237 24.2641 17.3751 25.849C17.1075 26.0896 16.773 26.3063 16.6854 26.6922C16.5212 27.147 16.7827 27.6093 16.7183 28.0742C16.6562 28.5804 16.7669 29.084 16.9238 29.5576C17.071 29.9548 16.9482 30.3808 16.8898 30.7855C16.7171 31.8329 16.5188 32.8828 16.4762 33.9466C16.4422 34.5079 16.6307 35.0867 16.4568 35.6317C15.89 36.9698 14.9376 38.0862 14.434 39.4581C14.2114 40.0896 14.3245 40.8113 14.0047 41.4101C13.6629 42.0842 13.1909 42.7495 13.2335 43.5576C13.1958 44.1052 13.6191 44.5963 13.4403 45.1438C13.1751 46.2602 12.9087 47.3778 12.6144 48.4878C12.4149 49.2258 12.3772 50.0339 12.5998 50.7706C12.8978 50.9323 13.2335 50.9861 13.5595 51.0588H14.8135C15.2185 51.02 15.6199 50.9498 16.025 50.8909C16.1417 50.3121 16.0043 49.747 15.8145 49.2083C15.5786 47.8501 15.789 46.4068 16.447 45.209C16.6745 44.8982 17.088 44.778 17.2498 44.4071C17.4919 43.8771 17.6074 43.297 17.8288 42.7583C18.1402 41.9915 18.5659 41.2711 18.7605 40.4554C18.8687 40.0094 18.7447 39.5521 18.7836 39.101C18.9016 38.6011 19.1193 38.1112 19.4769 37.7504C19.9561 37.2881 20.1435 36.5802 20.6677 36.1605C21.0253 35.8848 21.0423 35.3912 21.1177 34.9689C21.1883 34.4101 21.3646 33.8751 21.5605 33.3527C21.839 32.6298 22.0312 31.8367 22.5676 31.2666C22.9082 30.8995 23.0784 30.4109 23.2025 29.9247C23.4154 30.3495 23.5857 30.8206 23.9274 31.1538C24.3106 31.3518 24.8689 31.2453 25.1012 31.6976C25.769 32.745 25.8188 33.3414 26.489 34.3888C26.8089 35.0391 27.5801 34.88 28.1505 34.8975C28.4789 35.3624 28.8451 35.4964 28.7356 36.0602C28.7149 36.6954 28.1943 37.1853 28.2673 37.8356C28.3245 39.1587 28.4193 40.493 28.7526 41.7747C28.8694 42.3724 29.171 42.9212 29.1808 43.5426C29.1954 44.2618 29.0628 45.4395 28.9229 46.1499C28.5823 47.1009 28.35 48.0957 28.3062 49.1143C29.1114 49.6029 30.0407 49.1068 30.8824 49.3962C31.8056 49.7107 32.7738 49.8234 33.7408 49.8046C34.3355 49.7934 34.9315 49.7332 35.5166 49.6393C35.5203 49.2922 35.6297 48.9151 35.4765 48.5906C34.9899 47.9979 34.1762 47.9954 33.5851 47.5857C33.1071 47.1422 32.7166 46.601 32.3177 46.081C31.9807 45.6725 32.432 45.1075 32.4186 44.5925C32.4235 43.8107 32.4198 43.0051 32.6996 42.2684C32.9064 41.682 32.837 41.0481 32.7251 40.4504C32.5743 39.715 32.8297 38.9895 32.8954 38.2616C32.9903 37.2693 33.0584 36.2745 33.1192 35.2797C33.163 34.7121 32.9745 34.1708 32.8407 33.6308C32.7616 33.1221 32.2921 32.8352 32.1547 32.3529C31.3495 30.065 30.6124 28.1819 29.0263 26.3577C28.4169 25.7325 28.1092 24.6876 28.4789 23.8469C28.8219 23.9433 29.1625 24.0498 29.5104 24.14C29.8814 23.6251 30.2438 23.0563 30.3034 22.3947C30.3642 21.7132 30.3825 21.0278 30.4409 20.3462C30.4676 19.6033 30.6233 18.8377 30.4372 18.1085C30.3156 17.6099 29.8376 17.3944 29.4678 17.1413C29.5566 16.7942 29.6466 16.4497 29.7257 16.1001C30.9456 16.7128 32.0768 17.6011 33.4428 17.8191C33.8089 17.8767 34.2005 18.0572 34.5642 17.8843C35.0653 17.6362 35.4521 17.2027 35.89 16.8544C36.6831 16.2116 36.5736 15.0389 36.8497 14.1218C37.1197 14.014 37.3946 13.915 37.6683 13.8098C37.4883 12.9967 37.1745 12.1748 37.2815 11.3265C37.6099 10.8642 38.0247 10.5873 38.3665 10.135C38.6109 9.79172 39.0342 9.70276 39.4198 9.71278C40.5814 9.70652 41.7442 9.72782 42.907 9.71404C42.9447 9.53988 42.8073 9.88819 42.8486 9.71404C44.0576 9.78545 45.2679 9.51482 46.4794 9.67018C47.2347 9.80425 48.2491 9.74912 49.0081 9.69148C48.968 9.46095 48.9485 8.78438 48.9388 8.55509ZM33.9816 12.9365C33.7517 12.513 33.4075 12.1146 33.3394 11.626C33.3759 11.5746 33.4513 11.4756 33.4878 11.4255C33.9816 11.3716 34.4791 11.4055 34.9741 11.4305C34.6542 11.9392 34.3161 12.4379 33.9816 12.9365ZM33.9098 11.2977C34.2382 11.1248 34.3441 10.7677 34.3866 10.4081C34.6506 10.3944 34.9157 10.3856 35.1833 10.3793C35.1931 10.6437 35.2016 10.9056 35.2113 11.1699C34.7832 11.2689 34.3441 11.2676 33.9098 11.2977ZM48.9388 24.7464H40.4245V22.2406H50.7633C51.099 22.2406 51.3714 21.96 51.3714 21.6142C51.3714 20.5768 49.9459 19.7348 48.9388 19.7348H40.4245C39.0865 19.7348 37.9918 20.8624 37.9918 22.2406V24.7464C38.0587 25.9969 39.2082 27.2523 40.4245 27.2523H48.9388V29.7581H38.6C38.2643 29.7581 37.9918 30.0387 37.9918 30.3845C37.9918 31.422 39.4174 32.2639 40.4245 32.2639H48.9388C50.2767 32.2639 51.3714 31.1363 51.3714 29.7581V27.2523C51.3714 25.9994 50.3011 24.7703 48.9388 24.7464ZM2.71836 22.2406H11.7386C12.1339 22.2406 12.4526 21.851 12.3298 21.4638C12.0123 20.4602 11.0976 19.7348 10.0163 19.7348H2.71836C1.37432 19.7348 0.285706 20.8562 0.285706 22.2406V29.7581C0.285706 31.1426 1.37432 32.2639 2.71836 32.2639H10.0163C11.0976 32.2639 12.0123 31.5385 12.3298 30.5349C12.4514 30.1477 12.1327 29.7581 11.7386 29.7581H2.71836V22.2406Z" fill="#998598"/>
</svg>
