<svg width="52" height="51" viewBox="0 0 52 51" fill="none" xmlns="http://www.w3.org/2000/svg">
<path d="M48.6531 7.61393C48.0376 7.61268 47.174 7.54628 46.5646 7.644C45.6572 7.80939 44.7328 7.53625 43.8182 7.50743C43.8048 7.2769 43.9751 6.86469 43.9666 6.63541C43.7951 6.61286 43.6248 6.60033 43.4593 6.56024C43.3049 5.98766 43.3645 5.38375 43.3462 4.79614C43.2587 4.79489 43.0823 4.79113 42.9947 4.78862C42.9667 5.45768 42.9692 6.12673 42.9619 6.79578C42.7368 6.60659 42.5799 6.23949 42.2527 6.2658L33.3176 6.26455C32.8457 6.31717 32.4771 5.98515 32.0964 5.75086C32.0599 5.44264 32.0125 5.13693 31.9541 4.83373C31.6865 5.21336 31.6622 5.69949 31.5637 6.14678C30.8533 6.29211 30.1515 6.70181 29.4278 6.76697C29.3646 6.33596 29.2977 5.90622 29.2514 5.47146C29.6346 5.28101 30.0652 5.15322 30.3826 4.8425C30.756 3.71738 30.3242 2.54717 30.0773 1.44711C29.3123 0.873278 28.4645 0.36585 27.5826 0H26.3152C25.4443 0.293181 24.5771 0.773045 24.082 1.61751C23.3158 2.85663 23.2099 4.44783 23.6916 5.82352C23.6235 5.87114 23.4873 5.96886 23.4191 6.01898C22.5896 5.34241 21.4426 5.67693 20.6484 6.2445C19.4953 7.14534 18.8798 8.61877 18.6244 10.0721C18.3604 11.3038 18.4784 12.5679 18.6195 13.8058C18.1427 13.9273 17.6538 13.9512 17.1684 13.9887C16.9653 13.9975 16.7087 14.0815 16.6868 14.3308C16.5408 15.3106 16.6491 16.3179 16.4532 17.2914C16.3268 17.9154 16.2453 18.5493 16.2659 19.1883C16.7975 19.3124 17.3327 19.4314 17.8666 19.5479C17.5017 19.7208 17.0821 19.8436 16.8218 20.1856C16.5931 21.7655 17.138 23.3229 17.0894 24.9078C16.8218 25.1484 16.4873 25.3652 16.3997 25.7511C16.2355 26.2059 16.497 26.6682 16.4326 27.133C16.3705 27.6392 16.4812 28.1429 16.6381 28.6165C16.7853 29.0136 16.6625 29.4396 16.6041 29.8443C16.4314 30.8917 16.2331 31.9417 16.1905 33.0054C16.1565 33.5667 16.345 34.1456 16.1711 34.6906C15.6043 36.0287 14.6519 37.145 14.1483 38.517C13.9257 39.1484 14.0388 39.8701 13.7189 40.469C13.3772 41.1431 12.9052 41.8083 12.9478 42.6165C12.9101 43.164 13.3334 43.6551 13.1546 44.2027C12.8894 45.319 12.623 46.4366 12.3287 47.5467C12.1292 48.2846 12.0915 49.0928 12.3141 49.8295C12.6121 49.9911 12.9478 50.045 13.2738 50.1176H14.5278C14.9328 50.0788 15.3342 50.0086 15.7393 49.9498C15.856 49.3709 15.7186 48.8058 15.5288 48.2671C15.2929 46.9089 15.5033 45.4656 16.1613 44.2678C16.3888 43.9571 16.8023 43.8368 16.9641 43.4659C17.2062 42.936 17.3217 42.3559 17.5431 41.8171C17.8545 41.0503 18.2802 40.3299 18.4748 39.5143C18.583 39.0682 18.459 38.6109 18.4979 38.1599C18.6159 37.66 18.8336 37.1701 19.1912 36.8092C19.6704 36.3469 19.8577 35.639 20.382 35.2193C20.7396 34.9437 20.7566 34.45 20.832 34.0278C20.9026 33.469 21.0789 32.934 21.2748 32.4115C21.5533 31.6886 21.7455 30.8955 22.2819 30.3254C22.6225 29.9583 22.7927 29.4697 22.9168 28.9836C23.1297 29.4083 23.3 29.8794 23.6417 30.2127C24.0249 30.4106 24.5832 30.3041 24.8155 30.7564C25.4833 31.8039 25.5331 32.4002 26.2033 33.4477C26.5232 34.0979 27.2944 33.9388 27.8648 33.9564C28.1932 34.4212 28.5593 34.5553 28.4499 35.1191C28.4292 35.7543 27.9086 36.2442 27.9816 36.8944C28.0388 38.2175 28.1336 39.5519 28.4669 40.8336C28.5837 41.4312 28.8853 41.98 28.8951 42.6014C28.9096 43.3206 28.7771 44.4983 28.6372 45.2087C28.2966 46.1597 28.0643 47.1545 28.0205 48.1731C28.8257 48.6618 29.755 48.1656 30.5967 48.455C31.5199 48.7695 32.4881 48.8823 33.4551 48.8635C34.0498 48.8522 34.6458 48.7921 35.2309 48.6981C35.2345 48.351 35.344 47.9739 35.1908 47.6494C34.7042 47.0568 33.8905 47.0543 33.2994 46.6446C32.8214 46.201 32.4309 45.6598 32.032 45.1398C31.695 44.7314 32.1463 44.1663 32.1329 43.6514C32.1378 42.8696 32.1341 42.0639 32.4139 41.3272C32.6207 40.7409 32.5513 40.1069 32.4394 39.5093C32.2886 38.7738 32.544 38.0484 32.6097 37.3204C32.7046 36.3281 32.7727 35.3333 32.8335 34.3385C32.8773 33.7709 32.6888 33.2297 32.555 32.6897C32.4759 32.181 32.0064 31.8941 31.869 31.4117C31.0638 29.1239 30.3267 27.2408 28.7406 25.4165C28.1312 24.7913 27.8235 23.7464 28.1932 22.9057C28.5362 23.0022 28.8768 23.1087 29.2247 23.1989C29.5957 22.6839 29.9581 22.1151 30.0177 21.4536C30.0785 20.772 30.0968 20.0867 30.1552 19.4051C30.1819 18.6621 30.3376 17.8966 30.1515 17.1674C30.0299 16.6687 29.5519 16.4532 29.1821 16.2001C29.2709 15.8531 29.3609 15.5085 29.44 15.159C30.6599 15.7716 31.7911 16.6599 33.1571 16.8779C33.5232 16.9356 33.9148 17.116 34.2785 16.9431C34.7796 16.695 35.1664 16.2615 35.6043 15.9132C36.3974 15.2705 36.2879 14.0977 36.564 13.1806C36.834 13.0729 37.1089 12.9739 37.3826 12.8686C37.2026 12.0555 36.8887 11.2336 36.9958 10.3854C37.3242 9.92304 37.739 9.64615 38.0807 9.19385C38.3252 8.85056 38.7485 8.7616 39.1341 8.77162C40.2957 8.76536 41.4585 8.78666 42.6213 8.77287C42.659 8.59872 42.5216 8.94703 42.5629 8.77287C43.7719 8.84429 44.9822 8.57366 46.1936 8.72902C46.949 8.86308 47.9634 8.80796 48.7224 8.75032C48.6823 8.51979 48.6628 7.84321 48.6531 7.61393ZM33.6959 11.9954C33.466 11.5719 33.1218 11.1734 33.0537 10.6848C33.0902 10.6334 33.1656 10.5345 33.2021 10.4843C33.6959 10.4305 34.1934 10.4643 34.6884 10.4894C34.3685 10.998 34.0304 11.4967 33.6959 11.9954ZM33.6241 10.3566C33.9525 10.1837 34.0584 9.82657 34.1009 9.46699C34.3649 9.4532 34.63 9.44443 34.8976 9.43817C34.9074 9.70253 34.9159 9.96439 34.9256 10.2288C34.4975 10.3277 34.0584 10.3265 33.6241 10.3566ZM48.6531 23.8053H40.1388V21.2995H50.4776C50.8133 21.2995 51.0857 21.0188 51.0857 20.673C51.0857 19.6356 49.6602 18.7936 48.6531 18.7936H40.1388C38.8008 18.7936 37.7061 19.9213 37.7061 21.2995V23.8053C37.773 25.0557 38.9224 26.3111 40.1388 26.3111H48.6531V28.8169H38.3143C37.9786 28.8169 37.7061 29.0976 37.7061 29.4434C37.7061 30.4808 39.1317 31.3227 40.1388 31.3227H48.6531C49.991 31.3227 51.0857 30.1951 51.0857 28.8169V26.3111C51.0857 25.0582 50.0153 23.8291 48.6531 23.8053ZM2.43265 21.2995H11.4529C11.8482 21.2995 12.1669 20.9098 12.0441 20.5227C11.7266 19.5191 10.8119 18.7936 9.73061 18.7936H2.43265C1.08861 18.7936 0 19.915 0 21.2995V28.8169C0 30.2014 1.08861 31.3227 2.43265 31.3227H9.73061C10.8119 31.3227 11.7266 30.5973 12.0441 29.5937C12.1657 29.2066 11.847 28.8169 11.4529 28.8169H2.43265V21.2995Z" fill="#E3D0D8"/>
</svg>
