<svg width="45" height="43" viewBox="0 0 45 43" fill="none" xmlns="http://www.w3.org/2000/svg">
<g clip-path="url(#clip0)">
<path d="M44.6555 0H39.1396L36.8428 1.11103L34.546 0H23.7349L21.1307 1.25977H13.9328L11.3285 0H0.210083V20.2402L1.51219 22.7598V29.7236L0.210083 32.2431V43H22.4328L24.7296 41.889L27.0264 43H44.6555V25.9443L43.5071 23.7221L44.6555 21.5V0ZM11.9291 35.4414L8.02275 31.6621V24.1035L19.7417 35.4414H11.9291ZM35.5407 35.4414H30.3322L26.9567 31.6038L26.2606 28.8686L23.5812 27.7662L22.4328 26.4606L8.02275 10.0781L10.627 7.55859L22.4328 16.1439L36.8428 26.623L35.5407 35.4414ZM36.8428 18.8965L25.1238 7.55859H32.9365L36.8428 11.3379V18.8965Z" fill="#E3D0D8"/>
</g>
<defs>
<clipPath id="clip0">
<rect width="44.4454" height="43" fill="white" transform="translate(0.210083)"/>
</clipPath>
</defs>
</svg>
