<svg width="45" height="43" viewBox="0 0 45 43" fill="none" xmlns="http://www.w3.org/2000/svg">
<g clip-path="url(#clip0)">
<path d="M44.4454 0H38.9296L36.6327 1.11103L34.3359 0H23.5248L20.9206 1.25977H13.7227L11.1185 0H0V20.2402L1.30211 22.7598V29.7236L0 32.2431V43H22.2227L24.5195 41.889L26.8164 43H44.4454V25.9443L43.297 23.7221L44.4454 21.5V0ZM11.719 35.4414L7.81266 31.6621V24.1035L19.5317 35.4414H11.719ZM35.3306 35.4414H30.1222L26.7467 31.6038L26.0505 28.8686L23.3712 27.7662L22.2227 26.4606L7.81266 10.0781L10.4169 7.55859L22.2227 16.1439L36.6327 26.623L35.3306 35.4414ZM36.6327 18.8965L24.9137 7.55859H32.7264L36.6327 11.3379V18.8965Z" fill="#998598"/>
</g>
<defs>
<clipPath id="clip0">
<rect width="44.4454" height="43" fill="white"/>
</clipPath>
</defs>
</svg>
