<svg width="52" height="50" viewBox="0 0 52 50" fill="none" xmlns="http://www.w3.org/2000/svg">
<path d="M11.3696 3C11.1777 3 10.9895 3.05171 10.8262 3.14935C10.6629 3.24698 10.531 3.38668 10.4451 3.55279C10.3593 3.71889 10.3229 3.90484 10.3402 4.08981C10.3574 4.27477 10.4275 4.45143 10.5427 4.6L13.4368 8.332V41.668L9.5091 45.4C9.39393 45.5486 9.32379 45.7252 9.30655 45.9102C9.28932 46.0952 9.32565 46.2811 9.4115 46.4472C9.49734 46.6133 9.6293 46.753 9.79259 46.8507C9.95587 46.9483 10.144 47 10.336 47H40.3108C40.625 47 40.9216 46.862 41.118 46.625L46.2861 41.625C46.407 41.4777 46.4826 41.3004 46.5042 41.1135C46.5258 40.9265 46.4926 40.7375 46.4084 40.5679C46.3242 40.3984 46.1923 40.2552 46.028 40.1548C45.8636 40.0544 45.6733 40.0007 45.4788 40H23.773V4C23.773 3.73478 23.6641 3.48043 23.4702 3.29289C23.2764 3.10536 23.0135 3 22.7394 3H11.3696ZM25.8402 7V9C36.0988 9 44.4452 17.075 44.4452 27C44.4452 31.144 42.9765 34.954 40.5351 38H43.0871C45.3231 34.7395 46.5147 30.9129 46.5125 27C46.5125 15.972 37.2389 7 25.8402 7ZM25.8402 11V38H37.8198C40.6374 35.13 42.378 31.262 42.378 27C42.378 18.178 34.9587 11 25.8402 11ZM11.3696 12.74C7.79744 16.134 5.48524 20.765 5.19893 25.912C5.14657 26.8586 5.1628 27.8076 5.24751 28.752C5.6868 33.632 7.95145 38.012 11.3696 41.26V38.287C8.69298 35.0955 7.23309 31.11 7.23515 27C7.23309 22.89 8.69298 18.9045 11.3696 15.713V12.74ZM11.3696 19.271C10.0121 21.6352 9.30054 24.2955 9.30238 27C9.30238 29.802 10.0559 32.436 11.3696 34.729V19.27V19.271Z" fill="#E3D0D8"/>
</svg>
