<svg width="42" height="44" viewBox="0 0 42 44" fill="none" xmlns="http://www.w3.org/2000/svg">
<path d="M6.44538 0C6.25343 0 6.06526 0.0517147 5.90198 0.149349C5.73869 0.246984 5.60673 0.386681 5.52089 0.552786C5.43504 0.718892 5.3987 0.904844 5.41594 1.08981C5.43318 1.27477 5.50332 1.45143 5.61849 1.6L8.51261 5.332V38.668L4.58488 42.4C4.4697 42.5486 4.39957 42.7252 4.38233 42.9102C4.36509 43.0952 4.40143 43.2811 4.48727 43.4472C4.57312 43.6133 4.70508 43.753 4.86836 43.8507C5.03165 43.9483 5.21981 44 5.41177 44H35.3866C35.7008 44 35.9974 43.862 36.1938 43.625L41.3619 38.625C41.4828 38.4777 41.5583 38.3004 41.58 38.1135C41.6016 37.9265 41.5684 37.7375 41.4842 37.5679C41.4 37.3984 41.2681 37.2552 41.1037 37.1548C40.9393 37.0544 40.7491 37.0007 40.5546 37H18.8487V1C18.8487 0.734784 18.7398 0.48043 18.546 0.292893C18.3522 0.105357 18.0893 0 17.8151 0H6.44538ZM20.916 4V6C31.1746 6 39.521 14.075 39.521 24C39.521 28.144 38.0522 31.954 35.6109 35H38.1628C40.3989 31.7395 41.5904 27.9129 41.5882 24C41.5882 12.972 32.3147 4 20.916 4ZM20.916 8V35H32.8955C35.7132 32.13 37.4538 28.262 37.4538 24C37.4538 15.178 30.0345 8 20.916 8ZM6.44538 9.74C2.87321 13.134 0.561019 17.765 0.274708 22.912C0.222342 23.8586 0.238575 24.8076 0.323288 25.752C0.762573 30.632 3.02722 35.012 6.44538 38.26V35.287C3.76875 32.0955 2.30886 28.11 2.31093 24C2.30886 19.89 3.76875 15.9045 6.44538 12.713V9.74ZM6.44538 16.271C5.08784 18.6352 4.37632 21.2955 4.37815 24C4.37815 26.802 5.13166 29.436 6.44538 31.729V16.27V16.271Z" fill="#998598"/>
</svg>
