<svg width="38" height="36" viewBox="0 0 38 36" fill="none" xmlns="http://www.w3.org/2000/svg">
<g clip-path="url(#clip0)">
<path d="M34.2508 4.28906H12.3026C10.4988 4.28906 9.03223 5.70867 9.03223 7.45312C9.03223 9.19828 10.4988 10.6172 12.3026 10.6172H34.2508C36.0539 10.6172 37.5212 9.19828 37.5212 7.45312C37.5212 5.70867 36.0539 4.28906 34.2508 4.28906Z" fill="white"/>
<path d="M34.2508 14.8359H12.3026C10.4988 14.8359 9.03223 16.2555 9.03223 18C9.03223 19.7452 10.4988 21.1641 12.3026 21.1641H34.2508C36.0539 21.1641 37.5212 19.7452 37.5212 18C37.5212 16.2555 36.0539 14.8359 34.2508 14.8359Z" fill="white"/>
<path d="M34.2508 25.3828H12.3026C10.4988 25.3828 9.03223 26.8024 9.03223 28.5469C9.03223 30.292 10.4988 31.7109 12.3026 31.7109H34.2508C36.0539 31.7109 37.5212 30.292 37.5212 28.5469C37.5212 26.8024 36.0539 25.3828 34.2508 25.3828Z" fill="white"/>
<path d="M3.58145 4.28906C1.77764 4.28906 0.311035 5.70867 0.311035 7.45312C0.311035 9.19828 1.77764 10.6172 3.58145 10.6172C5.38454 10.6172 6.85187 9.19828 6.85187 7.45312C6.85187 5.70867 5.38454 4.28906 3.58145 4.28906Z" fill="white"/>
<path d="M3.58145 14.8359C1.77764 14.8359 0.311035 16.2555 0.311035 18C0.311035 19.7452 1.77764 21.1641 3.58145 21.1641C5.38454 21.1641 6.85187 19.7452 6.85187 18C6.85187 16.2555 5.38454 14.8359 3.58145 14.8359Z" fill="white"/>
<path d="M3.58145 25.3828C1.77764 25.3828 0.311035 26.8024 0.311035 28.5469C0.311035 30.292 1.77764 31.7109 3.58145 31.7109C5.38454 31.7109 6.85187 30.292 6.85187 28.5469C6.85187 26.8024 5.38454 25.3828 3.58145 25.3828Z" fill="white"/>
</g>
<defs>
<clipPath id="clip0">
<rect width="37.2101" height="36" fill="white" transform="translate(0.311035)"/>
</clipPath>
</defs>
</svg>
