<svg width="22" height="21" viewBox="0 0 22 21" fill="none" xmlns="http://www.w3.org/2000/svg">
<g clip-path="url(#clip0)">
<path d="M21.2819 0H4.15464C3.92054 0 3.7307 0.183627 3.7307 0.410156V2.21484H2.28929C2.05519 2.21484 1.86535 2.39851 1.86535 2.625V4.83984H0.423943C0.189799 4.83984 0 5.02351 0 5.25V18.7852C0 20.0064 1.027 21 2.28929 21H19.4166C20.6789 21 21.7059 20.0064 21.7059 18.7852V0.410156C21.7059 0.183627 21.516 0 21.2819 0ZM20.858 18.7852C20.858 19.5541 20.2114 20.1797 19.4166 20.1797H4.06612C4.3862 19.7987 4.57858 19.3133 4.57858 18.7852V13.2482C4.57858 13.0217 4.38874 12.838 4.15464 12.838C3.92054 12.838 3.7307 13.0217 3.7307 13.2482V18.7852C3.7307 19.5541 3.0841 20.1797 2.28929 20.1797C1.49448 20.1797 0.847886 19.5541 0.847886 18.7852V5.66016H1.86535V18.375C1.86535 18.6015 2.05519 18.7852 2.28929 18.7852C2.52339 18.7852 2.71324 18.6015 2.71324 18.375V3.03516H3.7307V9.55676C3.7307 9.78329 3.92054 9.96692 4.15464 9.96692C4.38874 9.96692 4.57858 9.78329 4.57858 9.55676V0.820312H20.858V18.7852Z" fill="#827081"/>
<path d="M6.18957 6.48047H19.247C19.4811 6.48047 19.671 6.29684 19.671 6.07031V3.11719C19.671 2.8907 19.4811 2.70703 19.247 2.70703H6.18957C5.95542 2.70703 5.76562 2.8907 5.76562 3.11719V6.07031C5.76562 6.29684 5.95542 6.48047 6.18957 6.48047ZM6.61351 3.52734H18.8231V5.66016H6.61351V3.52734Z" fill="#827081"/>
<path d="M6.18957 16.3242H12.7183C12.9524 16.3242 13.1422 16.1406 13.1422 15.9141V8.03906C13.1422 7.81253 12.9524 7.62891 12.7183 7.62891H6.18957C5.95542 7.62891 5.76562 7.81253 5.76562 8.03906V15.9141C5.76562 16.1406 5.95542 16.3242 6.18957 16.3242ZM6.61351 8.44922H12.2943V15.5039H6.61351V8.44922Z" fill="#827081"/>
<path d="M19.2468 7.62891H14.753C14.5189 7.62891 14.3291 7.81253 14.3291 8.03906C14.3291 8.26559 14.5189 8.44922 14.753 8.44922H19.2468C19.4809 8.44922 19.6708 8.26559 19.6708 8.03906C19.6708 7.81253 19.4809 7.62891 19.2468 7.62891Z" fill="#827081"/>
<path d="M19.2468 9.59766H14.753C14.5189 9.59766 14.3291 9.78128 14.3291 10.0078C14.3291 10.2343 14.5189 10.418 14.753 10.418H19.2468C19.4809 10.418 19.6708 10.2343 19.6708 10.0078C19.6708 9.78128 19.4809 9.59766 19.2468 9.59766Z" fill="#827081"/>
<path d="M19.2468 11.5664H14.753C14.5189 11.5664 14.3291 11.7501 14.3291 11.9766C14.3291 12.2031 14.5189 12.3867 14.753 12.3867H19.2468C19.4809 12.3867 19.6708 12.2031 19.6708 11.9766C19.6708 11.7501 19.4809 11.5664 19.2468 11.5664Z" fill="#827081"/>
<path d="M19.2468 13.5352H14.753C14.5189 13.5352 14.3291 13.7188 14.3291 13.9453C14.3291 14.1718 14.5189 14.3555 14.753 14.3555H19.2468C19.4809 14.3555 19.6708 14.1718 19.6708 13.9453C19.6708 13.7188 19.4809 13.5352 19.2468 13.5352Z" fill="#827081"/>
<path d="M19.2468 15.5039H14.753C14.5189 15.5039 14.3291 15.6876 14.3291 15.9141C14.3291 16.1406 14.5189 16.3242 14.753 16.3242H19.2468C19.4809 16.3242 19.6708 16.1406 19.6708 15.9141C19.6708 15.6876 19.4809 15.5039 19.2468 15.5039Z" fill="#827081"/>
<path d="M6.18957 18.293H19.247C19.4811 18.293 19.671 18.1093 19.671 17.8828C19.671 17.6563 19.4811 17.4727 19.247 17.4727H6.18957C5.95542 17.4727 5.76562 17.6563 5.76562 17.8828C5.76562 18.1093 5.95542 18.293 6.18957 18.293Z" fill="#827081"/>
<path d="M4.1759 10.9922C4.0644 10.9922 3.95502 11.036 3.87617 11.1124C3.79732 11.1887 3.75195 11.2945 3.75195 11.4023C3.75195 11.5106 3.79727 11.616 3.87617 11.6923C3.95502 11.769 4.0644 11.8125 4.1759 11.8125C4.28739 11.8125 4.39677 11.769 4.47558 11.6923C4.55443 11.616 4.59984 11.5102 4.59984 11.4023C4.59984 11.2945 4.55448 11.1887 4.47558 11.1124C4.39677 11.036 4.28739 10.9922 4.1759 10.9922Z" fill="#827081"/>
</g>
<defs>
<clipPath id="clip0">
<rect width="21.7059" height="21" fill="white"/>
</clipPath>
</defs>
</svg>
