<svg width="21" height="20" viewBox="0 0 21 20" fill="none" xmlns="http://www.w3.org/2000/svg">
<path d="M10.4033 0C7.39782 0 4.95264 2.36566 4.95264 5.27344C4.95264 8.18121 7.39782 10.5469 10.4033 10.5469C13.4088 10.5469 15.854 8.18121 15.854 5.27344C15.854 2.36566 13.4088 0 10.4033 0Z" fill="#827081"/>
<path d="M17.1851 13.992C15.6928 12.5261 13.7145 11.7188 11.6146 11.7188H9.19207C7.09222 11.7188 5.1139 12.5261 3.62163 13.992C2.13665 15.4507 1.31885 17.3763 1.31885 19.4141C1.31885 19.7377 1.59001 20 1.92448 20H18.8822C19.2167 20 19.4878 19.7377 19.4878 19.4141C19.4878 17.3763 18.67 15.4507 17.1851 13.992Z" fill="#827081"/>
</svg>
