<svg width="23" height="24" viewBox="0 0 23 24" fill="none" xmlns="http://www.w3.org/2000/svg">
<g clip-path="url(#clip0)">
<path d="M19.4906 12.8119H17.732C17.9112 13.3299 18.0092 13.8889 18.0092 14.4715V21.4863C18.0092 21.7292 17.9691 21.9624 17.8962 22.1792H20.8036C21.8896 22.1792 22.7731 21.2467 22.7731 20.1005V16.2764C22.7732 14.3661 21.3006 12.8119 19.4906 12.8119Z" fill="#827081"/>
<path d="M4.79758 14.4715C4.79758 13.8889 4.89551 13.3299 5.07476 12.812H3.31618C1.50616 12.812 0.0335999 14.3661 0.0335999 16.2765V20.1006C0.0335999 21.2468 0.917111 22.1793 2.00315 22.1793H4.91052C4.83764 21.9624 4.79758 21.7293 4.79758 21.4864V14.4715Z" fill="#827081"/>
<path d="M13.4135 11.007H9.39317C7.58316 11.007 6.1106 12.5612 6.1106 14.4715V21.4864C6.1106 21.869 6.40452 22.1793 6.76711 22.1793H16.0396C16.4022 22.1793 16.6961 21.8691 16.6961 21.4864V14.4715C16.6961 12.5612 15.2235 11.007 13.4135 11.007Z" fill="#827081"/>
<path d="M11.4034 1.82063C9.22659 1.82063 7.45566 3.68972 7.45566 5.98721C7.45566 7.54557 8.27059 8.90659 9.4741 9.62116C10.0449 9.96006 10.7031 10.1538 11.4034 10.1538C12.1037 10.1538 12.7618 9.96006 13.3326 9.62116C14.5362 8.90659 15.3511 7.54553 15.3511 5.98721C15.3511 3.68977 13.5801 1.82063 11.4034 1.82063Z" fill="#827081"/>
<path d="M4.47126 5.70419C2.84329 5.70419 1.51889 7.102 1.51889 8.82021C1.51889 10.5384 2.84329 11.9362 4.47126 11.9362C4.88421 11.9362 5.27744 11.8459 5.63466 11.6837C6.25227 11.403 6.76151 10.9062 7.07662 10.284C7.2978 9.84724 7.42362 9.34901 7.42362 8.82021C7.42362 7.10205 6.09922 5.70419 4.47126 5.70419Z" fill="#827081"/>
<path d="M18.3355 5.70419C16.7075 5.70419 15.3831 7.102 15.3831 8.82021C15.3831 9.34905 15.5089 9.84729 15.7301 10.284C16.0452 10.9063 16.5545 11.4031 17.1721 11.6837C17.5293 11.8459 17.9225 11.9362 18.3355 11.9362C19.9634 11.9362 21.2878 10.5384 21.2878 8.82021C21.2878 7.102 19.9634 5.70419 18.3355 5.70419Z" fill="#827081"/>
</g>
<defs>
<clipPath id="clip0">
<rect width="22.7395" height="24" fill="white" transform="translate(0.0335999)"/>
</clipPath>
</defs>
</svg>
