<svg width="21" height="20" viewBox="0 0 21 20" fill="none" xmlns="http://www.w3.org/2000/svg">
<g clip-path="url(#clip0)">
<path d="M14.5711 10.4696C20.5803 9.35963 20.7715 1.96094 20.7728 1.88469C20.7753 1.71719 20.7082 1.55594 20.5867 1.43719C20.4653 1.31844 20.2999 1.25094 20.1268 1.25094H15.6047V0.625949C15.6047 0.280951 15.3153 0.000953674 14.9587 0.000953674H5.91469C5.55809 0.000953674 5.26868 0.280951 5.26868 0.625949V1.25094H0.746661C0.573532 1.25094 0.408155 1.31844 0.286707 1.43719C0.165258 1.55594 0.0980738 1.71719 0.100658 1.88469C0.10195 1.96094 0.291875 9.36088 6.30229 10.4696C6.86431 11.1996 7.61626 11.7809 8.4987 12.1284V14.3371C8.4987 15.6233 7.70024 16.7596 6.45733 17.2333L5.66921 17.5458C5.4276 17.6433 5.26868 17.8721 5.26868 18.1258V19.3758C5.26868 19.7208 5.55809 20.0008 5.91469 20.0008H14.9587C15.3153 20.0008 15.6047 19.7208 15.6047 19.3758V18.1258C15.6047 17.8721 15.4458 17.6433 15.2029 17.5471L14.407 17.2321C13.1719 16.7596 12.3747 15.6246 12.3747 14.3383V12.1296C13.2585 11.7809 14.0104 11.1996 14.5711 10.4696ZM15.6047 7.5009V2.50093H19.433C19.2676 4.00217 18.5311 7.73214 15.3541 8.96088C15.5014 8.49589 15.6047 8.01214 15.6047 7.5009ZM1.4353 2.50093H5.26868V7.5009C5.26868 8.01339 5.37205 8.49839 5.52063 8.96463C2.30095 7.73839 1.58905 4.01092 1.4353 2.50093Z" fill="#827081"/>
</g>
<defs>
<clipPath id="clip0">
<rect width="20.6723" height="20" fill="white" transform="translate(0.100586)"/>
</clipPath>
</defs>
</svg>
