<svg width="32" height="32" viewBox="0 0 32 32" fill="none" xmlns="http://www.w3.org/2000/svg">
<g clip-path="url(#clip0)">
<path d="M25.6875 16.4289V13.4375C25.6875 9.07363 22.7868 5.37494 18.8125 4.16687V2.8125C18.8125 1.26169 17.5508 0 16 0C14.4492 0 13.1875 1.26169 13.1875 2.8125V4.16687C9.21314 5.37494 6.31251 9.07356 6.31251 13.4375V16.4289C6.31251 20.2621 4.85139 23.8969 2.19832 26.6636C1.93832 26.9348 1.86526 27.3348 2.01264 27.6803C2.16001 28.0258 2.49939 28.25 2.87501 28.25H11.4068C11.8423 30.387 13.7363 32 16 32C18.2638 32 20.1576 30.387 20.5932 28.25H29.125C29.5006 28.25 29.84 28.0258 29.9873 27.6803C30.1347 27.3348 30.0616 26.9348 29.8017 26.6636C27.1486 23.8969 25.6875 20.2621 25.6875 16.4289ZM15.0625 2.8125C15.0625 2.29556 15.4831 1.875 16 1.875C16.517 1.875 16.9375 2.29556 16.9375 2.8125V3.7955C16.629 3.76575 16.3163 3.75 16 3.75C15.6838 3.75 15.3711 3.76575 15.0625 3.7955V2.8125ZM16 30.125C14.7778 30.125 13.7358 29.3412 13.3488 28.25H18.6513C18.2643 29.3412 17.2222 30.125 16 30.125ZM4.89564 26.375C7.0307 23.513 8.18751 20.0495 8.18751 16.4289V13.4375C8.18751 9.12969 11.6922 5.625 16 5.625C20.3078 5.625 23.8125 9.12969 23.8125 13.4375V16.4289C23.8125 20.0495 24.9693 23.513 27.1045 26.375H4.89564Z" fill="#827081"/>
<path d="M28.1875 13.4375C28.1875 13.9552 28.6073 14.375 29.125 14.375C29.6428 14.375 30.0625 13.9552 30.0625 13.4375C30.0625 9.68125 28.5998 6.14981 25.9437 3.49375C25.5777 3.12769 24.984 3.12762 24.6179 3.49375C24.2518 3.85987 24.2518 4.45343 24.6179 4.81956C26.9199 7.1215 28.1875 10.1821 28.1875 13.4375Z" fill="#827081"/>
<path d="M2.875 14.375C3.39275 14.375 3.8125 13.9552 3.8125 13.4375C3.8125 10.1821 5.08025 7.12155 7.38212 4.81961C7.74825 4.45349 7.74825 3.85993 7.38212 3.4938C7.01606 3.12768 6.42244 3.12768 6.05631 3.4938C3.40025 6.14986 1.9375 9.68124 1.9375 13.4375C1.9375 13.9552 2.35725 14.375 2.875 14.375Z" fill="#827081"/>
</g>
<defs>
<clipPath id="clip0">
<rect width="32" height="32" fill="white"/>
</clipPath>
</defs>
</svg>
