<svg width="28" height="28" viewBox="0 0 28 28" fill="none" xmlns="http://www.w3.org/2000/svg">
<path d="M20.7298 11.6709C19.9514 10.3567 17.5378 9.43087 14.4667 9.3436V2.8H14.3939C13.9361 1.17553 11.1151 0 7.46667 0C3.81827 0 0.997275 1.17553 0.539475 2.8H0.466675V22.4C0.4693 22.5581 0.4938 22.7152 0.539475 22.8667H0.466675V24.7333C0.466675 26.5958 3.47621 28 7.46667 28C10.7595 28 13.3789 27.0429 14.1965 25.6625C17.3955 25.6247 19.9285 24.6825 20.7298 23.3291C24.6209 23.2834 27.5333 21.8979 27.5333 20.0667V14.9333C27.5333 13.1021 24.6209 11.7166 20.7298 11.6709ZM13.5333 24.7333C13.5333 25.837 11.0418 27.0667 7.46667 27.0667C3.89154 27.0667 1.40001 25.837 1.40001 24.7333V24.0721C2.58721 25.0404 4.80667 25.6667 7.46667 25.6667C10.1267 25.6667 12.3461 25.0404 13.5333 24.0721V24.7333ZM13.5333 22.4C13.5333 23.5037 11.0418 24.7333 7.46667 24.7333C3.89154 24.7333 1.40001 23.5037 1.40001 22.4V21.7387C2.58721 22.7071 4.80667 23.3333 7.46667 23.3333C10.1267 23.3333 12.3461 22.7071 13.5333 21.7387V22.4ZM13.5333 20.0667C13.5333 21.1703 11.0418 22.4 7.46667 22.4C3.89154 22.4 1.40001 21.1703 1.40001 20.0667V19.4054C2.58721 20.3737 4.80667 21 7.46667 21C10.1267 21 12.3461 20.3737 13.5333 19.4054V20.0667ZM13.5333 17.7333C13.5333 18.837 11.0418 20.0667 7.46667 20.0667C3.89154 20.0667 1.40001 18.837 1.40001 17.7333V17.0721C2.58721 18.0404 4.80667 18.6667 7.46667 18.6667C10.1267 18.6667 12.3461 18.0404 13.5333 17.0721V17.7333ZM13.5333 15.4C13.5333 16.5037 11.0418 17.7333 7.46667 17.7333C3.89154 17.7333 1.40001 16.5037 1.40001 15.4V14.7387C2.58721 15.7071 4.80667 16.3333 7.46667 16.3333C10.1267 16.3333 12.3461 15.7071 13.5333 14.7387V15.4ZM13.5333 13.0667C13.5333 14.1703 11.0418 15.4 7.46667 15.4C3.89154 15.4 1.40001 14.1703 1.40001 13.0667V12.4054C2.58721 13.3737 4.80667 14 7.46667 14C10.1267 14 12.3461 13.3737 13.5333 12.4054V13.0667ZM13.5333 10.7333C13.5333 11.837 11.0418 13.0667 7.46667 13.0667C3.89154 13.0667 1.40001 11.837 1.40001 10.7333V10.0721C2.58721 11.0404 4.80667 11.6667 7.46667 11.6667C10.1267 11.6667 12.3461 11.0404 13.5333 10.0721V10.7333ZM13.5333 8.4C13.5333 9.50367 11.0418 10.7333 7.46667 10.7333C3.89154 10.7333 1.40001 9.50367 1.40001 8.4V7.73873C2.58721 8.70707 4.80667 9.33333 7.46667 9.33333C10.1267 9.33333 12.3461 8.70707 13.5333 7.73873V8.4ZM13.5333 6.06667C13.5333 7.17033 11.0418 8.4 7.46667 8.4C3.89154 8.4 1.40001 7.17033 1.40001 6.06667V5.4054C2.58721 6.37373 4.80667 7 7.46667 7C10.1267 7 12.3461 6.37373 13.5333 5.4054V6.06667ZM13.5333 3.73333C13.5333 4.837 11.0418 6.06667 7.46667 6.06667C3.89154 6.06667 1.40001 4.837 1.40001 3.73333V3.26667C1.40001 2.163 3.89154 0.933333 7.46667 0.933333C11.0418 0.933333 13.5333 2.163 13.5333 3.26667V3.73333ZM20.0667 22.4C20.0667 23.4547 17.7884 24.6218 14.4667 24.7235V23.3235C16.919 23.2545 18.9499 22.6497 20.0667 21.7369V22.4ZM20.0667 20.0667C20.0667 21.1213 17.7884 22.2885 14.4667 22.3902V21.4667V20.9897C16.919 20.9207 18.9499 20.3159 20.0667 19.4031V20.0667ZM20.0667 17.7333C20.0667 18.788 17.7884 19.9551 14.4667 20.0569V19.1333V18.6564C16.919 18.5873 18.9499 17.9825 20.0667 17.0697V17.7333ZM20.0667 15.4C20.0667 16.4547 17.7884 17.6218 14.4667 17.7235V16.3235C16.919 16.2545 18.9499 15.6497 20.0667 14.7369V15.4ZM20.0667 13.0667C20.0667 14.1213 17.7884 15.2885 14.4667 15.3902V10.2765C17.7884 10.3782 20.0667 11.5453 20.0667 12.6V13.0667ZM26.6 20.0667C26.6 21.1213 24.3217 22.2885 21 22.3902V20.9902C23.4523 20.9211 25.4833 20.3163 26.6 19.4035V20.0667ZM26.6 17.7333C26.6 18.788 24.3217 19.9551 21 20.0569V18.6569C23.4523 18.5878 25.4833 17.983 26.6 17.0702V17.7333ZM26.6 15.4C26.6 16.4547 24.3217 17.6218 21 17.7235V12.6098C24.3217 12.7115 26.6 13.8787 26.6 14.9333V15.4Z" fill="#827081"/>
</svg>
