<svg width="283" height="42" viewBox="0 0 283 42" fill="none" xmlns="http://www.w3.org/2000/svg">
<path d="M20.016 22.004H25.344V32.228C23.976 33.26 22.392 34.052 20.592 34.604C18.792 35.156 16.98 35.432 15.156 35.432C12.54 35.432 10.188 34.88 8.1 33.776C6.012 32.648 4.368 31.1 3.168 29.132C1.992 27.14 1.404 24.896 1.404 22.4C1.404 19.904 1.992 17.672 3.168 15.704C4.368 13.712 6.024 12.164 8.136 11.06C10.248 9.932 12.624 9.368 15.264 9.368C17.472 9.368 19.476 9.74 21.276 10.484C23.076 11.228 24.588 12.308 25.812 13.724L22.068 17.18C20.268 15.284 18.096 14.336 15.552 14.336C13.944 14.336 12.516 14.672 11.268 15.344C10.02 16.016 9.048 16.964 8.352 18.188C7.656 19.412 7.308 20.816 7.308 22.4C7.308 23.96 7.656 25.352 8.352 26.576C9.048 27.8 10.008 28.76 11.232 29.456C12.48 30.128 13.896 30.464 15.48 30.464C17.16 30.464 18.672 30.104 20.016 29.384V22.004ZM47.3574 29.6H35.6574L33.4254 35H27.4494L38.6814 9.8H44.4414L55.7094 35H49.5894L47.3574 29.6ZM45.5214 25.172L41.5254 15.524L37.5294 25.172H45.5214ZM81.2559 35L81.2199 19.88L73.8039 32.336H71.1759L63.7959 20.204V35H58.3239V9.8H63.1479L72.5799 25.46L81.8679 9.8H86.6559L86.7279 35H81.2559ZM112.219 30.32V35H92.7068V9.8H111.751V14.48H98.5028V19.952H110.203V24.488H98.5028V30.32H112.219ZM125.139 35.432C123.147 35.432 121.215 35.168 119.343 34.64C117.495 34.088 116.007 33.38 114.879 32.516L116.859 28.124C117.939 28.916 119.223 29.552 120.711 30.032C122.199 30.512 123.687 30.752 125.175 30.752C126.831 30.752 128.055 30.512 128.847 30.032C129.639 29.528 130.035 28.868 130.035 28.052C130.035 27.452 129.795 26.96 129.315 26.576C128.859 26.168 128.259 25.844 127.515 25.604C126.795 25.364 125.811 25.1 124.563 24.812C122.643 24.356 121.071 23.9 119.847 23.444C118.623 22.988 117.567 22.256 116.679 21.248C115.815 20.24 115.383 18.896 115.383 17.216C115.383 15.752 115.779 14.432 116.571 13.256C117.363 12.056 118.551 11.108 120.135 10.412C121.743 9.716 123.699 9.368 126.003 9.368C127.611 9.368 129.183 9.56 130.719 9.944C132.255 10.328 133.599 10.88 134.751 11.6L132.951 16.028C130.623 14.708 128.295 14.048 125.967 14.048C124.335 14.048 123.123 14.312 122.331 14.84C121.563 15.368 121.179 16.064 121.179 16.928C121.179 17.792 121.623 18.44 122.511 18.872C123.423 19.28 124.803 19.688 126.651 20.096C128.571 20.552 130.143 21.008 131.367 21.464C132.591 21.92 133.635 22.64 134.499 23.624C135.387 24.608 135.831 25.94 135.831 27.62C135.831 29.06 135.423 30.38 134.607 31.58C133.815 32.756 132.615 33.692 131.007 34.388C129.399 35.084 127.443 35.432 125.139 35.432ZM150.724 9.8C152.956 9.8 154.888 10.172 156.52 10.916C158.176 11.66 159.448 12.716 160.336 14.084C161.224 15.452 161.668 17.072 161.668 18.944C161.668 20.792 161.224 22.412 160.336 23.804C159.448 25.172 158.176 26.228 156.52 26.972C154.888 27.692 152.956 28.052 150.724 28.052H145.648V35H139.816V9.8H150.724ZM150.4 23.3C152.152 23.3 153.484 22.928 154.396 22.184C155.308 21.416 155.764 20.336 155.764 18.944C155.764 17.528 155.308 16.448 154.396 15.704C153.484 14.936 152.152 14.552 150.4 14.552H145.648V23.3H150.4ZM178.387 35.432C175.771 35.432 173.407 34.868 171.295 33.74C169.207 32.612 167.563 31.064 166.363 29.096C165.187 27.104 164.599 24.872 164.599 22.4C164.599 19.928 165.187 17.708 166.363 15.74C167.563 13.748 169.207 12.188 171.295 11.06C173.407 9.932 175.771 9.368 178.387 9.368C181.003 9.368 183.355 9.932 185.443 11.06C187.531 12.188 189.175 13.748 190.375 15.74C191.575 17.708 192.175 19.928 192.175 22.4C192.175 24.872 191.575 27.104 190.375 29.096C189.175 31.064 187.531 32.612 185.443 33.74C183.355 34.868 181.003 35.432 178.387 35.432ZM178.387 30.464C179.875 30.464 181.219 30.128 182.419 29.456C183.619 28.76 184.555 27.8 185.227 26.576C185.923 25.352 186.271 23.96 186.271 22.4C186.271 20.84 185.923 19.448 185.227 18.224C184.555 17 183.619 16.052 182.419 15.38C181.219 14.684 179.875 14.336 178.387 14.336C176.899 14.336 175.555 14.684 174.355 15.38C173.155 16.052 172.207 17 171.511 18.224C170.839 19.448 170.503 20.84 170.503 22.4C170.503 23.96 170.839 25.352 171.511 26.576C172.207 27.8 173.155 28.76 174.355 29.456C175.555 30.128 176.899 30.464 178.387 30.464ZM201.427 14.552H193.363V9.8H215.323V14.552H207.259V35H201.427V14.552Z" fill="#8D828D"/>
<path d="M220.189 35.288C219.205 35.288 218.377 34.952 217.705 34.28C217.033 33.608 216.697 32.768 216.697 31.76C216.697 30.728 217.033 29.9 217.705 29.276C218.377 28.628 219.205 28.304 220.189 28.304C221.173 28.304 222.001 28.628 222.673 29.276C223.345 29.9 223.681 30.728 223.681 31.76C223.681 32.768 223.345 33.608 222.673 34.28C222.001 34.952 221.173 35.288 220.189 35.288ZM244.207 22.004H249.535V32.228C248.167 33.26 246.583 34.052 244.783 34.604C242.983 35.156 241.171 35.432 239.347 35.432C236.731 35.432 234.379 34.88 232.291 33.776C230.203 32.648 228.559 31.1 227.359 29.132C226.183 27.14 225.595 24.896 225.595 22.4C225.595 19.904 226.183 17.672 227.359 15.704C228.559 13.712 230.215 12.164 232.327 11.06C234.439 9.932 236.815 9.368 239.455 9.368C241.663 9.368 243.667 9.74 245.467 10.484C247.267 11.228 248.779 12.308 250.003 13.724L246.259 17.18C244.459 15.284 242.287 14.336 239.743 14.336C238.135 14.336 236.707 14.672 235.459 15.344C234.211 16.016 233.239 16.964 232.543 18.188C231.847 19.412 231.499 20.816 231.499 22.4C231.499 23.96 231.847 25.352 232.543 26.576C233.239 27.8 234.199 28.76 235.423 29.456C236.671 30.128 238.087 30.464 239.671 30.464C241.351 30.464 242.863 30.104 244.207 29.384V22.004ZM271.981 22.004H277.309V32.228C275.941 33.26 274.357 34.052 272.557 34.604C270.757 35.156 268.945 35.432 267.121 35.432C264.505 35.432 262.153 34.88 260.065 33.776C257.977 32.648 256.333 31.1 255.133 29.132C253.957 27.14 253.369 24.896 253.369 22.4C253.369 19.904 253.957 17.672 255.133 15.704C256.333 13.712 257.989 12.164 260.101 11.06C262.213 9.932 264.589 9.368 267.229 9.368C269.437 9.368 271.441 9.74 273.241 10.484C275.041 11.228 276.553 12.308 277.777 13.724L274.033 17.18C272.233 15.284 270.061 14.336 267.517 14.336C265.909 14.336 264.481 14.672 263.233 15.344C261.985 16.016 261.013 16.964 260.317 18.188C259.621 19.412 259.273 20.816 259.273 22.4C259.273 23.96 259.621 25.352 260.317 26.576C261.013 27.8 261.973 28.76 263.197 29.456C264.445 30.128 265.861 30.464 267.445 30.464C269.125 30.464 270.637 30.104 271.981 29.384V22.004Z" fill="#8D828D"/>
</svg>
