<svg width="22" height="28" viewBox="0 0 22 28" fill="none" xmlns="http://www.w3.org/2000/svg">
<path d="M21.996 9.5C21.9597 8.6445 21.2135 7.976 19.7212 7.466C19.7714 7.316 19.7996 7.16 19.8 6.998V3.5H19.7938C19.6625 0.586 10.9058 0.5 9.9 0.5C8.89423 0.5 0.1375 0.586 0.00623333 3.5H0V3.565V6.9995C0.00183333 7.9495 0.9009 8.693 2.2385 9.2465C2.22017 9.3295 2.20917 9.414 2.2055 9.5H2.2V9.565V12.9935C0.759 13.4995 0.0392333 14.1585 0.00366667 15H0V15.065V18.4995C0.0011 19.161 0.438533 19.722 1.15427 20.1895C1.12713 20.291 1.11027 20.3945 1.1055 20.5005H1.1V20.5655V24C1.10293 25.663 3.8489 26.6955 6.89993 27.1775C6.9223 27.1835 6.94283 27.196 6.96667 27.196C6.97363 27.196 6.9795 27.191 6.98647 27.1905C7.5746 27.281 8.17227 27.3515 8.7637 27.402C8.77617 27.404 8.78717 27.412 8.8 27.412C8.80697 27.412 8.81247 27.407 8.81907 27.4065C9.57 27.4685 10.3088 27.5 11 27.5C11.6912 27.5 12.43 27.4685 13.1809 27.406C13.1875 27.4065 13.1934 27.4115 13.2 27.4115C13.2128 27.4115 13.2238 27.403 13.2363 27.4015C13.8277 27.351 14.4254 27.281 15.0135 27.19C15.0205 27.19 15.0264 27.195 15.0333 27.195C15.0572 27.195 15.0777 27.1825 15.1001 27.1765C18.1511 26.6945 20.8967 25.6615 20.9 23.998V20.5H20.8941C20.8685 19.887 20.4853 19.3755 19.7285 18.948C19.7747 18.8035 19.8 18.6535 19.8 18.498V15.23C21.1163 14.678 21.9982 13.9395 22 12.998V9.5H21.996ZM19.0271 18.6605L18.902 18.81C18.7095 19.0415 18.3887 19.275 17.9667 19.5V17.116C18.4026 16.909 18.7737 16.6795 19.0667 16.428V18.497C19.0667 18.5485 19.0527 18.6035 19.0271 18.6605ZM10.8262 20.984C10.7727 20.986 10.7188 20.987 10.6649 20.9885C10.534 20.992 10.3998 20.993 10.267 20.9945V18.497C10.3679 18.4955 10.4687 18.4935 10.5695 18.491C10.589 18.4905 10.6084 18.49 10.6278 18.4895C10.9971 18.48 11.3663 18.4645 11.7337 18.4415V20.938C11.6552 20.9435 11.5764 20.9485 11.4968 20.953C11.2761 20.9665 11.0532 20.9765 10.8262 20.984ZM9.22497 20.991C9.05703 20.987 8.88983 20.9815 8.72373 20.9745C8.7032 20.9735 8.68267 20.9725 8.66213 20.9715C8.4623 20.9625 8.26393 20.951 8.06703 20.938V18.442C8.43443 18.4655 8.80367 18.481 9.1729 18.49C9.19233 18.4905 9.21177 18.491 9.23083 18.4915C9.33167 18.494 9.4325 18.496 9.53333 18.4975V20.9965C9.4622 20.9955 9.39107 20.9955 9.3203 20.994C9.28803 20.993 9.25687 20.9915 9.22497 20.991ZM2.60223 19.851C2.59013 19.846 2.57877 19.8415 2.56667 19.837V17.4215C2.90913 17.5475 3.27727 17.6625 3.66667 17.767V20.2075C3.33007 20.11 3.0195 20.0075 2.7368 19.9025C2.69207 19.885 2.64587 19.8685 2.60223 19.851ZM10.3308 23.9915C10.4317 23.994 10.5325 23.996 10.6333 23.9975V26.497C10.1266 26.4905 9.63747 26.4705 9.16667 26.439V23.9425C9.53407 23.966 9.9033 23.9815 10.2725 23.9905C10.292 23.9905 10.3114 23.991 10.3308 23.9915ZM11.7275 23.99C12.0967 23.9805 12.4659 23.965 12.8333 23.942V26.4385C12.3625 26.47 11.8734 26.49 11.3667 26.4965V23.997C11.4675 23.9955 11.5683 23.9935 11.6692 23.991C11.6886 23.991 11.708 23.9905 11.7275 23.99ZM14.6667 23.764V26.247C14.3143 26.2975 13.9476 26.342 13.5667 26.3785V23.885C13.9385 23.852 14.3059 23.8115 14.6667 23.764ZM15.4 23.656C15.778 23.594 16.1451 23.5235 16.5 23.445V25.9C16.1546 25.983 15.7876 26.0595 15.4 26.129V23.656ZM17.2333 23.2665C17.6227 23.162 17.9909 23.047 18.3333 22.921V25.3365C18.0066 25.465 17.6389 25.5895 17.2333 25.707V23.2665ZM4.76667 23.2665V25.707C4.36113 25.5895 3.99337 25.465 3.66667 25.3365V22.921C4.00913 23.047 4.37727 23.1625 4.76667 23.2665ZM5.5 23.4455C5.85493 23.524 6.22197 23.5945 6.6 23.6565V26.1295C6.21243 26.06 5.8454 25.9835 5.5 25.9005V23.4455ZM7.33333 23.764C7.69413 23.8115 8.06153 23.852 8.43333 23.8855V26.379C8.05237 26.3425 7.6857 26.298 7.33333 26.2475V23.764ZM6.42363 20.774C6.38623 20.769 6.3492 20.7635 6.31217 20.7585C6.28577 20.755 6.25973 20.7505 6.23333 20.747V18.2645C6.59413 18.312 6.96153 18.3525 7.33333 18.386V20.8775C7.02533 20.8475 6.721 20.8135 6.42363 20.774ZM5.5 18.156V20.629C5.11243 20.5595 4.7454 20.483 4.4 20.4V17.945C4.75493 18.0235 5.12197 18.0945 5.5 18.156ZM12.7109 20.854C12.6302 20.8625 12.5488 20.871 12.4667 20.879V18.3855C12.8385 18.352 13.2059 18.312 13.5667 18.264V20.747C13.3401 20.7795 13.1083 20.81 12.8704 20.8365C12.8172 20.843 12.764 20.8485 12.7109 20.854ZM14.3 20.629V18.156C14.678 18.094 15.0451 18.0235 15.4 17.945V20.4C15.0546 20.483 14.6876 20.56 14.3 20.629ZM16.1333 17.7665C16.5227 17.662 16.8909 17.547 17.2333 17.421V19.8365C16.9066 19.965 16.5389 20.0895 16.1333 20.207V17.7665ZM11.1192 15.4825C10.8434 15.473 10.5739 15.4585 10.3092 15.441C10.2949 15.44 10.2806 15.439 10.2667 15.4385V12.942C10.6341 12.9655 11.0033 12.981 11.3725 12.99C11.392 12.9905 11.4114 12.991 11.4305 12.9915C11.5313 12.994 11.6321 12.996 11.733 12.9975V15.494C11.5544 15.4915 11.3744 15.4905 11.2002 15.485C11.1734 15.484 11.1459 15.4835 11.1192 15.4825ZM2.56667 8.337V5.9215C2.90913 6.0475 3.27727 6.1625 3.66667 6.267V8.7075C3.62157 8.6945 3.575 8.6815 3.531 8.6685C3.33593 8.61 3.14563 8.549 2.96377 8.4845C2.82517 8.436 2.69353 8.3865 2.56667 8.337ZM9.23083 6.9915C9.33167 6.994 9.4325 6.996 9.53333 6.9975V9.494C9.0398 9.4875 8.5492 9.47 8.06667 9.437V6.9425C8.43407 6.966 8.8033 6.9815 9.17253 6.9905C9.19197 6.9905 9.2114 6.991 9.23083 6.9915ZM10.6275 6.99C10.9967 6.9805 11.3659 6.965 11.7333 6.942V9.4365C11.671 9.4405 11.6112 9.4465 11.5485 9.4505C11.5434 9.451 11.5383 9.451 11.5328 9.4515C11.2867 9.4665 11.0359 9.4775 10.7818 9.4855C10.7422 9.487 10.7026 9.4875 10.663 9.489C10.5325 9.4925 10.399 9.493 10.2667 9.495V6.9975C10.3675 6.996 10.4683 6.994 10.5692 6.9915C10.5886 6.991 10.608 6.9905 10.6275 6.99ZM18.9827 7.241L18.9724 7.238L18.839 7.3795C18.6454 7.585 18.348 7.793 17.9667 7.994V5.6155C18.4026 5.4085 18.7737 5.179 19.0667 4.9275V6.9965C19.0667 7.0725 19.0373 7.1545 18.9827 7.241ZM14.3 9.126V6.656C14.678 6.594 15.0451 6.5235 15.4 6.445V8.896C15.0524 8.98 14.6865 9.057 14.3 9.126ZM16.1333 8.7035V6.267C16.5227 6.1625 16.8909 6.0475 17.2333 5.9215V8.3315C16.9048 8.462 16.5348 8.5865 16.1333 8.7035ZM13.5667 6.764V9.244C13.2125 9.295 12.8458 9.3395 12.4667 9.3765V6.8855C12.8385 6.852 13.2059 6.8115 13.5667 6.764ZM6.23333 9.245V6.764C6.59413 6.8115 6.96153 6.852 7.33333 6.8855V9.3745C6.96007 9.338 6.59193 9.2965 6.23333 9.245ZM5.5 6.656V9.1265C5.4274 9.1135 5.35187 9.103 5.28 9.0895C5.23307 9.0805 5.18833 9.071 5.14213 9.062C4.9302 9.0205 4.72303 8.976 4.5199 8.9295C4.4792 8.92 4.43997 8.91 4.4 8.9005V6.4455C4.75493 6.5235 5.12197 6.5945 5.5 6.656ZM9.4424 15.3695C9.3929 15.3645 9.34303 15.3595 9.2939 15.3545C9.05923 15.3295 8.83007 15.302 8.6064 15.2715C8.55837 15.265 8.51033 15.258 8.46267 15.2515C8.45277 15.25 8.44323 15.248 8.43333 15.247V12.764C8.79413 12.8115 9.16153 12.852 9.53333 12.8855V15.3775C9.50363 15.3745 9.4721 15.3725 9.4424 15.3695ZM7.01983 14.996C6.87463 14.9645 6.73823 14.9305 6.6 14.8975V12.4455C6.95493 12.524 7.32197 12.5945 7.7 12.6565V15.1295C7.4756 15.089 7.25597 15.047 7.04513 15.002C7.0367 14.9995 7.02827 14.9975 7.01983 14.996ZM5.86667 12.2665V14.703C5.4615 14.5845 5.0941 14.4585 4.76667 14.3275V11.921C5.10913 12.047 5.47727 12.1625 5.86667 12.2665ZM4.03333 11.6155V13.991C3.45693 13.6875 3.08513 13.3775 2.96413 13.1015L2.93957 13.0455C2.93737 13.03 2.9337 13.0135 2.93333 12.998V10.9275C3.2263 11.179 3.59737 11.4085 4.03333 11.6155ZM12.8275 12.99C13.1967 12.9805 13.5659 12.965 13.9333 12.942V15.436C13.4515 15.4685 12.9617 15.4865 12.4667 15.4935V12.9975C12.5675 12.996 12.6683 12.994 12.7692 12.9915C12.7886 12.991 12.808 12.9905 12.8275 12.99ZM17.5659 14.9085C17.4049 14.9465 17.2425 14.984 17.0757 15.0185C16.98 15.0385 16.8821 15.0575 16.7838 15.0765C16.691 15.0945 16.5946 15.11 16.5004 15.1265V12.656C16.8784 12.594 17.2454 12.5235 17.6004 12.445V14.9C17.5886 14.903 17.5773 14.906 17.5659 14.9085ZM15.0832 15.3355C14.9464 15.351 14.8053 15.361 14.6667 15.3745V12.8855C15.0385 12.852 15.4059 12.812 15.7667 12.764V15.2445C15.5536 15.275 15.341 15.3055 15.1221 15.3305C15.1089 15.332 15.0964 15.334 15.0832 15.3355ZM19.2735 14.398C19.0909 14.4675 18.8976 14.5325 18.7004 14.596C18.6091 14.625 18.5159 14.654 18.4206 14.682C18.3924 14.6905 18.3623 14.698 18.3337 14.7065V12.267C18.7231 12.1625 19.0912 12.0475 19.4337 11.9215V14.337C19.3809 14.357 19.3277 14.3775 19.2735 14.398ZM21.2626 9.5325C21.2289 9.872 20.6646 10.3235 19.6574 10.748C18.3601 11.2945 16.3302 11.795 13.7577 11.95C13.6261 11.9575 13.4948 11.965 13.3606 11.971C13.251 11.976 13.141 11.9805 13.0291 11.9845C12.7255 11.9935 12.4175 12 12.1 12C11.7825 12 11.4745 11.9935 11.1709 11.984C11.0594 11.9805 10.9494 11.9755 10.8394 11.9705C10.7048 11.965 10.5736 11.957 10.4423 11.9495C7.86977 11.7945 5.83953 11.294 4.54263 10.7475C3.54347 10.3265 2.98027 9.8785 2.93847 9.5405C2.9403 9.531 2.9403 9.523 2.9447 9.511C2.96963 9.5195 2.9975 9.5265 3.0228 9.535C3.16617 9.5815 3.3132 9.6265 3.4628 9.6695C4.19137 9.8835 4.99877 10.059 5.85897 10.193C5.8619 10.193 5.8641 10.195 5.86667 10.195C5.8674 10.195 5.86813 10.1945 5.8685 10.1945C6.45443 10.2855 7.06237 10.357 7.68643 10.4075C7.6912 10.4075 7.69523 10.411 7.7 10.411C7.70257 10.411 7.7044 10.409 7.70697 10.409C8.15613 10.445 8.61117 10.4715 9.0717 10.4855C9.35367 10.495 9.6305 10.5 9.9 10.5C10.0925 10.5 10.2898 10.497 10.4889 10.492C13.1531 10.436 15.6222 10.004 17.3404 9.3345C17.4196 9.304 17.497 9.2725 17.5732 9.241C17.6198 9.2215 17.6675 9.2025 17.7126 9.183C17.8453 9.125 17.9725 9.0655 18.0954 9.0035C18.1166 8.9925 18.1368 8.9815 18.1581 8.9705C18.2618 8.917 18.3616 8.8615 18.4569 8.805C18.4844 8.7885 18.5126 8.7725 18.5394 8.756C18.641 8.6935 18.7392 8.6295 18.8302 8.563C18.8712 8.5335 18.9068 8.503 18.9453 8.473C18.9893 8.4385 19.0333 8.4035 19.074 8.368C19.0971 8.348 19.1246 8.329 19.1466 8.309C20.7882 8.7945 21.2208 9.3255 21.2626 9.5325ZM9.9 1.5C15.946 1.5 19.004 2.798 19.0612 3.543C19.0168 3.881 18.454 4.3275 17.4574 4.7475C16.1601 5.294 14.1302 5.7945 11.5577 5.9495C11.4261 5.957 11.2948 5.9645 11.1606 5.9705C11.051 5.9755 10.941 5.98 10.8291 5.984C10.5255 5.9935 10.2175 6 9.9 6C9.58247 6 9.27447 5.9935 8.97087 5.984C8.8594 5.9805 8.7494 5.9755 8.6394 5.9705C8.50483 5.965 8.37357 5.957 8.2423 5.9495C5.66977 5.7945 3.63953 5.294 2.34263 4.7475C1.34567 4.3275 0.7832 3.881 0.738833 3.543C0.796033 2.798 3.85403 1.5 9.9 1.5ZM0.733333 6.998V4.9275C1.0263 5.179 1.39737 5.4085 1.83333 5.6155V8.0095C1.12017 7.645 0.734067 7.2795 0.733333 6.998ZM2.50947 13.9175C2.51497 13.9255 2.5234 13.9325 2.5289 13.9405C3.03087 14.6315 4.07037 15.1745 5.36433 15.5795C5.39403 15.589 5.42557 15.598 5.45563 15.6075C5.5506 15.6365 5.64703 15.665 5.74457 15.6925C6.93293 16.0375 8.35157 16.287 9.89707 16.4105C9.89817 16.4105 9.8989 16.411 9.89963 16.411C9.90037 16.411 9.90073 16.4105 9.9011 16.4105C10.3976 16.45 10.9054 16.4775 11.4239 16.4895C11.6534 16.496 11.8793 16.5 12.1 16.5C12.353 16.5 12.6126 16.496 12.8766 16.4875C13.3562 16.474 13.8288 16.447 14.2949 16.41C14.2967 16.41 14.2982 16.4115 14.3 16.4115C14.3033 16.4115 14.3059 16.409 14.3092 16.409C15.8587 16.2845 17.3125 16.0325 18.542 15.67C18.2758 15.86 17.9113 16.0565 17.4574 16.248C16.0879 16.825 13.9007 17.3505 11.121 17.4725C11.0385 17.476 10.9571 17.48 10.8735 17.483C10.7837 17.486 10.6924 17.488 10.6011 17.4905C10.3704 17.4955 10.1383 17.5 9.9 17.5C9.58247 17.5 9.27447 17.4935 8.97087 17.484C8.8594 17.4805 8.7494 17.4755 8.6394 17.4705C8.50483 17.465 8.37357 17.457 8.2423 17.4495C5.66977 17.2945 3.63953 16.794 2.34263 16.2475C1.3343 15.8225 0.77 15.3705 0.737367 15.031C0.778067 14.843 1.14877 14.3725 2.50947 13.9175ZM0.733333 18.498V16.4275C1.0263 16.679 1.39737 16.9085 1.83333 17.1155V19.5L1.62397 19.389L1.61957 19.395C1.0439 19.0695 0.734067 18.75 0.733333 18.498ZM1.83333 23.998V21.9275C2.1263 22.179 2.49737 22.4085 2.93333 22.6155V25.0095C2.22017 24.645 1.83407 24.2795 1.83333 23.998ZM19.0667 25.0095V22.616C19.5026 22.409 19.8737 22.1795 20.1667 21.928V23.997C20.1663 24.2785 19.7798 24.6445 19.0667 25.0095ZM20.1619 20.5385C20.1219 20.877 19.5587 21.326 18.5574 21.748C17.2601 22.2945 15.2302 22.795 12.6577 22.95C12.5261 22.9575 12.3948 22.965 12.2606 22.971C12.151 22.976 12.041 22.9805 11.9291 22.9845C11.6255 22.9935 11.3175 23 11 23C10.6825 23 10.3741 22.9935 10.0701 22.984C9.95977 22.9805 9.85087 22.9755 9.74197 22.9705C9.60667 22.9645 9.47467 22.957 9.3423 22.9495C6.76977 22.7945 4.7399 22.294 3.44263 21.7475C2.4728 21.339 1.91253 20.905 1.84213 20.57C1.9514 20.622 2.0647 20.6725 2.18093 20.722C2.19267 20.727 2.2044 20.732 2.21613 20.7365C2.31513 20.778 2.41633 20.818 2.5201 20.857C2.55933 20.872 2.59893 20.887 2.6389 20.9015C2.69757 20.923 2.7577 20.9435 2.81783 20.9645C4.15323 21.431 5.85787 21.7615 7.69817 21.91C7.6989 21.91 7.69927 21.9105 7.7 21.9105C7.70037 21.9105 7.70073 21.91 7.7011 21.91C8.26943 21.956 8.84987 21.9845 9.43653 21.994C9.59273 21.998 9.74783 22 9.9 22C10.102 22 10.3088 21.9965 10.5182 21.9915C11.0532 21.9795 11.5812 21.9525 12.0974 21.9105C12.0985 21.9105 12.0993 21.9115 12.1004 21.9115C12.1022 21.9115 12.1033 21.91 12.1051 21.91C12.734 21.8585 13.3426 21.785 13.9275 21.6935C13.9297 21.6935 13.9315 21.695 13.9337 21.695C13.9418 21.695 13.9484 21.6895 13.9564 21.6885C14.6076 21.586 15.2251 21.46 15.7982 21.3135C15.9163 21.284 16.0325 21.2535 16.1476 21.222C16.1733 21.215 16.199 21.208 16.2246 21.2005C17.3074 20.8975 18.2446 20.505 18.8877 20.0185C18.9229 19.9925 18.9559 19.9655 18.9893 19.939C19.03 19.906 19.0689 19.8725 19.1066 19.8385C19.1418 19.8075 19.1825 19.7775 19.2148 19.746C19.9386 20.098 20.1381 20.413 20.1619 20.5385ZM20.1667 14.0095V11.616C20.6026 11.409 20.9737 11.1795 21.2667 10.928V12.997C21.2663 13.2785 20.8798 13.6445 20.1667 14.0095Z" fill="#827081"/>
</svg>
