<svg width="168" height="169" viewBox="0 0 168 169" fill="none" xmlns="http://www.w3.org/2000/svg">
<path d="M0 0H168V169H0V0Z" fill="#B5B4E0"/>
<path d="M95.7586 85.008H106.415V105.456C103.679 107.52 100.511 109.104 96.9106 110.208C93.3106 111.312 89.6866 111.864 86.0386 111.864C80.8066 111.864 76.1026 110.76 71.9266 108.552C67.7506 106.296 64.4626 103.2 62.0626 99.264C59.7106 95.28 58.5346 90.792 58.5346 85.8C58.5346 80.808 59.7106 76.344 62.0626 72.408C64.4626 68.424 67.7746 65.328 71.9986 63.12C76.2226 60.864 80.9746 59.736 86.2546 59.736C90.6706 59.736 94.6786 60.48 98.2786 61.968C101.879 63.456 104.903 65.616 107.351 68.448L99.8626 75.36C96.2626 71.568 91.9186 69.672 86.8306 69.672C83.6146 69.672 80.7586 70.344 78.2626 71.688C75.7666 73.032 73.8226 74.928 72.4306 77.376C71.0386 79.824 70.3426 82.632 70.3426 85.8C70.3426 88.92 71.0386 91.704 72.4306 94.152C73.8226 96.6 75.7426 98.52 78.1906 99.912C80.6866 101.256 83.5186 101.928 86.6866 101.928C90.0466 101.928 93.0706 101.208 95.7586 99.768V85.008Z" fill="#51394F"/>
</svg>
