<svg width="168" height="155" viewBox="0 0 168 155" fill="none" xmlns="http://www.w3.org/2000/svg">
<path d="M0 0H168V155H0V0Z" fill="#B5B4E0"/>
<path d="M95.7586 78.008H106.415V98.456C103.679 100.52 100.511 102.104 96.9106 103.208C93.3106 104.312 89.6866 104.864 86.0386 104.864C80.8066 104.864 76.1026 103.76 71.9266 101.552C67.7506 99.296 64.4626 96.2 62.0626 92.264C59.7106 88.28 58.5346 83.792 58.5346 78.8C58.5346 73.808 59.7106 69.344 62.0626 65.408C64.4626 61.424 67.7746 58.328 71.9986 56.12C76.2226 53.864 80.9746 52.736 86.2546 52.736C90.6706 52.736 94.6786 53.48 98.2786 54.968C101.879 56.456 104.903 58.616 107.351 61.448L99.8626 68.36C96.2626 64.568 91.9186 62.672 86.8306 62.672C83.6146 62.672 80.7586 63.344 78.2626 64.688C75.7666 66.032 73.8226 67.928 72.4306 70.376C71.0386 72.824 70.3426 75.632 70.3426 78.8C70.3426 81.92 71.0386 84.704 72.4306 87.152C73.8226 89.6 75.7426 91.52 78.1906 92.912C80.6866 94.256 83.5186 94.928 86.6866 94.928C90.0466 94.928 93.0706 94.208 95.7586 92.768V78.008Z" fill="#51394F"/>
</svg>
